<?xml version="1.0" encoding="UTF-8"?>
<!DOCTYPE svg PUBLIC "-//W3C//DTD SVG 1.1//EN" "http://www.w3.org/Graphics/SVG/1.1/DTD/svg11.dtd">
<svg xmlns="http://www.w3.org/2000/svg" xmlns:xlink="http://www.w3.org/1999/xlink" version="1.1" width="42" height="42" viewBox="0 0 42 42">
<style>path{fill:#000}@media (prefers-color-scheme:dark){path{fill:#fff}}</style>
<path d="M 21.828125,2.71875 C 19.854807,2.6338276 18.785983,4.926309 18.09375,6.7246094 17.832909,7.4268746 17.514648,9.3227112 17.205078,11.509766 h -0.03516 C 16.705536,9.4029653 16.265028,7.5985688 15.972656,6.9765625 15.35065,5.5577003 14.350756,3.7962866 12.943359,3.2832031 12.352883,3.0682239 11.686794,3.0700959 10.947266,3.4140625 8.4621065,4.5520187 9.4621954,7.3736008 10.359375,9.3886719 c 0.315303,0.6822001 1.421949,2.2469371 2.751953,4.0097661 -0.0057,0.0086 -0.01288,0.01392 -0.02148,0.02539 C 11.272554,12.257208 9.6868663,11.297543 9.0390625,11.0625 8.9416055,11.0281 8.8405579,10.986479 8.7402344,10.949219 6.693632,10.20109 3.8648898,9.6411612 2.9648438,12.097656 c -0.951641,2.568284 1.7476604,3.848588 3.8085937,4.642578 h 0.00391 c 0.7051278,0.260841 2.594196,0.581969 4.7812505,0.888672 v 0.03516 c -2.1125284,0.464356 -3.9102841,0.904768 -4.5351568,1.191407 -2.0179374,0.88858 -4.7215608,2.537492 -3.5664063,5.03125 0.3468331,0.748128 0.8439044,1.179552 1.4257813,1.394531 1.3472025,0.493019 3.1415581,-0.184635 4.5546875,-0.806641 0.6793343,-0.318169 2.2421183,-1.428722 4.0078123,-2.755859 0.0057,0.01147 0.01679,0.01392 0.02539,0.02539 -1.163753,1.81729 -2.124331,3.405844 -2.359375,4.050781 -0.799723,2.0552 -1.5474599,5.125444 1.035156,6.074219 0,0 0.002,1.59e-4 0.002,0.0059 2.043734,0.748127 3.269016,-0.814944 4.085937,-2.517578 -0.504485,-0.54748 -0.912453,-1.199799 -1.193359,-1.933594 -0.527415,-1.373 -0.573323,-2.936706 -0.134766,-4.404297 l 0.630859,-2.115234 c -0.71373,-0.361165 -1.292471,-0.914037 -1.667968,-1.576172 -0.567545,-0.994637 -0.714202,-2.231691 -0.28711,-3.392578 0.765325,-2.089597 3.089177,-3.164803 5.181641,-2.402344 0.730929,0.272307 1.328235,0.733363 1.77539,1.306641 0.464356,-0.120389 0.939283,-0.185547 1.417969,-0.185547 0.533149,0 1.058143,0.07751 1.56836,0.226562 l 0.07422,0.01953 c 0.610541,0.180582 1.185222,0.466426 1.701172,0.847656 H 28.25 C 30.202011,14.82507 32.502503,13.23845 31.421875,10.902344 31.075042,10.15135 30.578884,9.7197986 29.994141,9.5019531 28.649804,9.0118007 26.853622,9.6895807 25.443359,10.314453 c -0.679334,0.315303 -2.244983,1.424815 -4.007812,2.751953 -0.0086,-0.0086 -0.01965,-0.01587 -0.02539,-0.02734 1.163754,-1.811557 2.120425,-3.3990708 2.355469,-4.0468745 0.802588,-2.0552005 1.552406,-5.1273974 -1.027344,-6.0761719 -0.0029,0 -0.0031,-1.294e-4 -0.0059,-0.00586 C 22.412103,2.7926343 22.110028,2.7308818 21.828125,2.71875 Z m 0.130859,14.125 c -0.891446,0 -1.778583,0.358715 -2.498046,0.992188 -0.642072,0.570411 -1.118979,1.32393 -1.376954,2.195312 l -1.080078,3.613281 c -0.298104,1.008969 -0.269493,2.068297 0.08594,2.994141 0.415626,1.089227 1.255589,1.888862 2.304687,2.207031 h 0.002 l 0.0332,0.0098 c 0.257974,0.07453 0.530427,0.126166 0.802734,0.134765 v 3.00586 c 0,4.847063 3.379192,7.287109 7.68164,7.287109 4.299583,0 7.886719,-2.440046 7.886719,-7.287109 v -3.00586 c 0.269441,-0.0086 0.542806,-0.06024 0.800781,-0.134765 l 0.03516,-0.0098 h 0.002 c 1.046232,-0.318169 1.88906,-1.117804 2.304687,-2.207031 0.352566,-0.925844 0.384961,-1.985172 0.08398,-2.994141 L 37.945312,20.03125 c -0.257975,-0.871382 -0.732928,-1.624901 -1.375,-2.195312 -0.719462,-0.633473 -1.604646,-0.992188 -2.496093,-0.992188 -0.332501,0 -0.657353,0.05189 -0.972657,0.146484 h -0.002 -0.0039 L 33.064453,17 c -0.581877,0.171983 -1.097133,0.498029 -1.515625,0.939453 H 24.482422 C 24.06393,17.498028 23.548674,17.171983 22.966797,17 l -0.0293,-0.0098 h -0.0039 -0.002 c -0.315259,-0.09456 -0.642978,-0.14645 -0.972613,-0.14645 z m 3.523438,3.117188 h 5.068359 c -0.134721,0.725196 -0.09571,1.49198 0.125,2.234374 l 1.082031,3.619141 c 0.257976,0.865649 0.732929,1.623988 1.375,2.197266 0.203514,0.17485 0.423946,0.334943 0.650391,0.466797 v 3.517578 c 0,1.691169 -0.547112,3.009323 -1.619141,3.917968 -1.023299,0.865649 -2.533033,1.347657 -4.25,1.347657 -1.714099,0 -3.138835,-0.45753 -4.11914,-1.320313 C 22.768755,35.04136 22.25,33.71306 22.25,31.996094 v -3.517578 c 0.226444,-0.131854 0.442971,-0.291947 0.646484,-0.466797 0.644938,-0.573278 1.121844,-1.331617 1.376954,-2.197266 l 1.080078,-3.619141 c 0.223579,-0.742394 0.263626,-1.509178 0.128906,-2.234374 z m 4.49414,6.009765 c -0.558945,0 -1.011718,0.451733 -1.011718,1.007813 0,0.564678 0.452773,1.015625 1.011718,1.015625 0.558946,0 1.007813,-0.450947 1.007813,-1.015625 0,-0.55608 -0.448867,-1.007813 -1.007813,-1.007813 z m -3.919921,0.002 c -0.558946,0 -1.011719,0.454727 -1.011719,1.013672 0,0.55608 0.452773,1.009766 1.011719,1.009766 0.558946,0 1.009765,-0.453686 1.009765,-1.009766 0,-0.558945 -0.450819,-1.013672 -1.009765,-1.013672 z m 1.960937,5.720703 c -1.642441,0 -2.972656,0.914399 -2.972656,2.035157 0,1.120758 1.330215,2.029296 2.972656,2.029296 1.639574,0 2.96875,-0.908538 2.96875,-2.029296 0,-1.120758 -1.329176,-2.035157 -2.96875,-2.035157 z"/>
</svg>
