<?xml version="1.0" encoding="UTF-8"?>
<!DOCTYPE svg PUBLIC "-//W3C//DTD SVG 1.1//EN" "http://www.w3.org/Graphics/SVG/1.1/DTD/svg11.dtd">
<svg xmlns="http://www.w3.org/2000/svg" xmlns:xlink="http://www.w3.org/1999/xlink" version="1.1" width="42" height="42" viewBox="0 0 42 42">
<style>path{fill:#000}@media (prefers-color-scheme:dark){path{fill:#fff}}</style>
<path d="m 21,3.9902344 c -4.279114,0 -8.372418,1.5998231 -11.5214844,4.5078125 -3.1309854,2.8868951 -5.0591993,6.8006861 -5.4238281,11.0195311 -0.075337,0.843769 0.5488092,1.58588 1.3925781,1.658203 0.045202,0.006 0.090624,0.0059 0.1328125,0.0059 0.7865132,0 1.4541279,-0.602884 1.5234375,-1.398438 C 7.4018482,16.326764 8.984206,13.117688 11.554688,10.746094 14.137224,8.3624468 17.492332,7.0507813 21,7.0507812 c 2.486104,0 4.92897,0.6661548 7.0625,1.9257813 1.687538,0.994442 3.143222,2.3415945 4.279297,3.9296875 l -1.697266,0.982422 c -0.180808,0.105471 -0.291015,0.298824 -0.291015,0.509766 0,0.207929 0.114113,0.403401 0.294922,0.505859 l 7.05664,4.0625 -0.01172,-8.144531 c 0,-0.210943 -0.114115,-0.404295 -0.294921,-0.509766 -0.177796,-0.102458 -0.403177,-0.103505 -0.583985,0.002 l -1.810547,1.048828 C 33.596616,9.3232082 31.756745,7.6005305 29.617188,6.3378906 27.010544,4.8040392 24.031541,3.9902344 21,3.9902344 Z m -1.621094,10.5117186 -4.53125,12.994141 h 2.775391 l 1.111328,-3.248047 h 4.527344 L 24.375,27.496094 h 2.773438 L 22.619141,14.501953 Z m 1.582032,2.484375 h 0.04102 l 1.533203,5.550781 h -3.068359 z m 15.591796,3.837891 c -0.840755,-0.07232 -1.583927,0.551822 -1.65625,1.392578 -0.301346,3.459452 -1.88069,6.668529 -4.451172,9.037109 -2.582536,2.383647 -5.937644,3.695313 -9.445312,3.695313 -2.489118,0 -4.92897,-0.666154 -7.0625,-1.925781 -1.687538,-0.994443 -3.147129,-2.338581 -4.2832031,-3.929688 l 1.7011721,-0.982422 c 0.180808,-0.105471 0.291015,-0.298824 0.291015,-0.509766 0,-0.207929 -0.114114,-0.401449 -0.294922,-0.503906 l -7.0605464,-4.060547 0.015625,8.144532 c 0,0.207929 0.110208,0.401448 0.2910156,0.503906 0.090404,0.05424 0.1935246,0.07813 0.2929688,0.07813 0.1024577,0 0.2015046,-0.02388 0.2949219,-0.07813 l 1.8105469,-1.048828 c 1.4072861,2.0371 3.2471622,3.76275 5.3867182,5.02539 2.60363,1.533851 5.582634,2.347657 8.617188,2.347657 4.276101,0 8.369404,-1.598931 11.521484,-4.503907 3.130985,-2.889909 5.056187,-6.801579 5.423828,-11.023437 0.07534,-0.840755 -0.548809,-1.58588 -1.392578,-1.658203 z"/>
</svg>
