<?xml version="1.0" encoding="UTF-8"?>
<!DOCTYPE svg PUBLIC "-//W3C//DTD SVG 1.1//EN" "http://www.w3.org/Graphics/SVG/1.1/DTD/svg11.dtd">
<svg xmlns="http://www.w3.org/2000/svg" xmlns:xlink="http://www.w3.org/1999/xlink" version="1.1" width="42" height="42" viewBox="0 0 42 42">
<style>path{fill:#000}@media (prefers-color-scheme:dark){path{fill:#fff}}</style>
<path d="m 23.628906,4.3339844 c -0.706717,0.018902 -1.328106,0.536821 -1.455078,1.2617187 -0.14775,0.8284544 0.409142,1.6171898 1.240234,1.7675781 6.648743,1.1714451 11.476563,6.9247238 11.476563,13.6816408 0,7.664523 -6.230693,13.894531 -13.892578,13.894531 -0.403674,0 -0.812541,-0.01912 -1.210938,-0.05078 -3.287434,-0.279669 -6.267752,-1.672049 -8.613281,-4.017578 -2.6251978,-2.622559 -4.0683592,-6.113957 -4.0683592,-9.826172 0,-4.49054 2.2036617,-8.709197 5.8261722,-11.3027345 l 0.990234,1.6972655 c 0.100259,0.176772 0.290196,0.289063 0.503906,0.289063 0.208432,0 0.397102,-0.112291 0.5,-0.289063 l 4.048828,-7.0371092 -8.117187,0.015625 c -0.208433,0 -0.398371,0.1116051 -0.503906,0.2910156 -0.102897,0.1820489 -0.09635,0.3999823 0.0039,0.5820312 L 11.402344,7.09375 c -2.0315612,1.4009851 -3.7466623,3.235367 -5.0078128,5.367188 -1.5329044,2.593536 -2.3378906,5.563027 -2.3378906,8.583984 0,4.527477 1.7612558,8.782055 4.9589844,11.982422 2.825716,2.820439 6.554134,4.558083 10.511719,4.898437 0.485464,0.03957 0.982601,0.06445 1.470703,0.06445 9.345177,0 16.945312,-7.602773 16.945312,-16.945312 0,-4.002438 -1.426576,-7.891325 -4.02539,-10.949219 C 31.358731,7.0747462 27.813981,5.0381265 23.935547,4.3574219 23.83232,4.3389531 23.729866,4.3312842 23.628906,4.3339844 Z M 19.419922,14.570312 14.871094,27.517578 h 2.765625 l 1.107422,-3.21875 H 23.25 l 1.113281,3.21875 h 2.759766 L 22.578125,14.570312 Z m 1.544922,2.515626 h 0.0332 l 1.65625,5.18164 H 19.3457 Z"/>
</svg>
