<?xml version="1.0" encoding="UTF-8"?>
<!DOCTYPE svg PUBLIC "-//W3C//DTD SVG 1.1//EN" "http://www.w3.org/Graphics/SVG/1.1/DTD/svg11.dtd">
<svg xmlns="http://www.w3.org/2000/svg" xmlns:xlink="http://www.w3.org/1999/xlink" version="1.1" width="42" height="42" viewBox="0 0 42 42">
<style>path{fill:#000}@media (prefers-color-scheme:dark){path{fill:#fff}}</style>
<path d="m 25.683594,2.5742188 -1.306641,3.2792968 c -0.50877,0.05653 -1.005058,0.1634404 -1.482422,0.2890625 l -2.46875,-2.5195312 0.04297,3.5234375 C 20.035354,7.3977286 19.614882,7.674226 19.212891,7.9882812 L 15.972656,6.59375 17.361328,9.8417969 c -0.307774,0.3957101 -0.584693,0.8166041 -0.835937,1.2500001 l -3.53711,-0.04492 2.53125,2.462891 c -0.131903,0.483645 -0.232111,0.979933 -0.294922,1.482422 l -3.279297,1.3125 3.279297,1.3125 c 0.06281,0.502487 0.163019,0.999199 0.294922,1.476562 l -2.53125,2.462891 3.53711,-0.03906 c 0.251244,0.439677 0.528163,0.854291 0.835937,1.25 l -1.15039,2.691406 -1.376954,0.587891 c -0.244963,-0.182152 -0.495958,-0.357487 -0.759765,-0.501953 l 0.02539,-2.148438 -1.49414,1.539063 c -0.288931,-0.08165 -0.596945,-0.144375 -0.898438,-0.175781 l -0.798828,-1.992188 -0.791015,1.992188 c -0.3140558,0.03141 -0.6095072,0.09413 -0.898438,0.175781 l -1.5,-1.539063 0.025391,2.148438 C 7.4803397,25.689388 7.2226352,25.864723 6.9902344,26.046875 L 5.0117188,25.205078 5.859375,27.177734 C 5.677223,27.416416 5.5003559,27.673693 5.3496094,27.9375 l -2.140625,-0.03125 1.53125,1.494141 c -0.081654,0.288931 -0.1380947,0.596944 -0.1757813,0.898437 l -1.9902343,0.798828 1.9902343,0.791016 c 0.037687,0.314055 0.094127,0.609506 0.1757813,0.898437 l -1.53125,1.494141 2.140625,-0.02539 c 0.1507465,0.270088 0.3276136,0.522616 0.5097656,0.767579 l -0.8476562,1.964843 1.9785156,-0.847656 c 0.2324008,0.188433 0.4900999,0.357067 0.7539062,0.507813 l -0.025391,2.142578 1.5,-1.533204 c 0.2889308,0.08166 0.5843826,0.145908 0.8984384,0.183594 l 0.791015,1.984375 0.798828,-1.984375 c 0.301493,-0.03769 0.609507,-0.101939 0.898438,-0.183594 l 1.49414,1.533204 -0.02539,-2.142578 c 0.263807,-0.150746 0.514802,-0.31938 0.759765,-0.507813 l 1.972657,0.847656 -0.847657,-1.964843 c 0.188433,-0.244963 0.35902,-0.497491 0.509766,-0.767579 l 2.140625,0.02539 -1.539063,-1.494141 c 0.08165,-0.288931 0.145486,-0.584382 0.189454,-0.898437 l 1.984375,-0.791016 -1.984375,-0.798828 c -0.04397,-0.301493 -0.1078,-0.609506 -0.189454,-0.898437 L 18.609375,27.90625 16.46875,27.9375 c -0.150746,-0.263811 -0.321333,-0.521084 -0.509766,-0.759766 l 0.609375,-1.417968 2.644532,-1.138672 c 0.401991,0.307774 0.822463,0.596834 1.255859,0.841797 l -0.04297,3.529297 2.46875,-2.525391 c 0.477364,0.125622 0.973652,0.226251 1.482422,0.289062 l 1.306641,3.279297 1.3125,-3.279297 c 0.50877,-0.06281 1.005058,-0.16344 1.482422,-0.289062 l 2.46875,2.525391 -0.05078,-3.529297 c 0.439677,-0.244963 0.859728,-0.534023 1.261719,-0.841797 l 3.242188,1.394531 -1.394532,-3.248047 c 0.314056,-0.395709 0.590553,-0.810323 0.841797,-1.25 l 3.535156,0.03906 -2.53125,-2.462891 c 0.131904,-0.477363 0.232111,-0.974074 0.294922,-1.476562 l 3.279297,-1.3125 -3.279297,-1.3125 c -0.06281,-0.50249 -0.163018,-0.998777 -0.294922,-1.482422 l 2.53125,-2.462891 -3.535156,0.04492 C 34.596412,10.658399 34.319915,10.237507 34.005859,9.8417969 L 35.400391,6.59375 32.158203,7.9882812 C 31.756212,7.674226 31.336161,7.3977286 30.896484,7.1464844 l 0.05078,-3.5234375 -2.46875,2.5195312 C 28.001152,6.016956 27.504864,5.9100456 26.996094,5.8535156 Z m 0,5.1875 c 0.68464,0 1.25,0.5595003 1.25,1.2441406 0,0.6846404 -0.56536,1.2382816 -1.25,1.2382816 -0.67836,0 -1.238282,-0.5536412 -1.238282,-1.2382816 0,-0.6846403 0.559922,-1.2441406 1.238282,-1.2441406 z m 0,3.7636722 c 1.287626,0 2.330078,1.042872 2.330078,2.324218 0,1.287626 -1.042452,2.324219 -2.330078,2.324219 -1.281346,0 -2.324219,-1.036593 -2.324219,-2.324219 0,-1.281346 1.042873,-2.324218 2.324219,-2.324218 z m -6.0625,1.074218 c 0.684641,0 1.24414,0.551266 1.24414,1.242188 0,0.68464 -0.559499,1.238281 -1.24414,1.238281 -0.68464,0 -1.236328,-0.553641 -1.236328,-1.238281 0,-0.690922 0.551688,-1.242188 1.236328,-1.242188 z m 12.128906,0 c 0.68464,0 1.244141,0.551266 1.244141,1.242188 0,0.68464 -0.559501,1.238281 -1.244141,1.238281 -0.68464,0 -1.236328,-0.553641 -1.236328,-1.238281 0,-0.690922 0.551688,-1.242188 1.236328,-1.242188 z m -9.804688,4.257813 c 1.287626,0 2.324219,1.042874 2.324219,2.324219 0,1.287626 -1.036592,2.330078 -2.324219,2.330078 -1.281345,0 -2.324218,-1.042452 -2.324218,-2.330078 0,-1.281345 1.042873,-2.324219 2.324218,-2.324219 z m 7.480469,0 c 1.281345,0 2.324219,1.042874 2.324219,2.324219 0,1.287626 -1.042874,2.330078 -2.324219,2.330078 -1.287627,0 -2.330078,-1.042452 -2.330078,-2.330078 0,-1.281345 1.042451,-2.324219 2.330078,-2.324219 z m -3.742187,5.501953 c 0.68464,0 1.25,0.565782 1.25,1.244141 0,0.68464 -0.56536,1.238281 -1.25,1.238281 -0.67836,0 -1.238281,-0.553641 -1.238282,-1.238281 0,-0.678359 0.559922,-1.244141 1.238282,-1.244141 z m -14.775391,4.271484 c 0.615548,0 1.105469,0.490343 1.105469,1.09961 0,0.615549 -0.489921,1.111328 -1.105469,1.111328 -0.609267,0 -1.1054686,-0.495779 -1.1054686,-1.111328 0,-0.609267 0.4962016,-1.09961 1.1054686,-1.09961 z m -3.3789061,2.669922 c 0.6155482,0 1.1054687,0.496624 1.1054687,1.09961 0,0.615548 -0.4899205,1.111328 -1.1054687,1.111328 -0.6092671,0 -1.1054688,-0.49578 -1.1054688,-1.111328 0,-0.602986 0.4962017,-1.09961 1.1054688,-1.09961 z m 6.7597651,0 c 0.609268,0 1.111329,0.496624 1.111329,1.09961 0,0.615548 -0.502061,1.111328 -1.111329,1.111328 -0.609267,0 -1.113281,-0.49578 -1.113281,-1.111328 0,-0.602986 0.504014,-1.09961 1.113281,-1.09961 z m -3.380859,0.847657 c 0.615548,0 1.105469,0.48992 1.105469,1.105468 0,0.609267 -0.489921,1.105469 -1.105469,1.105469 -0.609267,0 -1.1054686,-0.496202 -1.1054686,-1.105469 0,-0.615548 0.4962016,-1.105469 1.1054686,-1.105468 z m -1.8710936,3.203124 c 0.6029859,0 1.1054686,0.496202 1.1054686,1.105469 0,0.609267 -0.5024827,1.111328 -1.1054686,1.111328 -0.6092671,0 -1.1113282,-0.502061 -1.1113282,-1.111328 0,-0.609267 0.5020611,-1.105469 1.1113282,-1.105469 z m 3.7441406,0 c 0.615548,0 1.111328,0.496202 1.111328,1.105469 0,0.609267 -0.49578,1.111328 -1.111328,1.111328 -0.609267,0 -1.099609,-0.502061 -1.099609,-1.111328 0,-0.609267 0.490342,-1.105469 1.099609,-1.105469 z"/>
</svg>
