<?xml version="1.0" encoding="UTF-8"?>
<svg width="24" height="24" version="1.1" viewBox="0 0 24 24" xmlns="http://www.w3.org/2000/svg">
 <style>path{fill:#000}@media (prefers-color-scheme:dark){path{fill:#fff}}</style>
 <g>
  <path d="m5 4v1.5c-0.32738-8.1e-5 -0.65506 1.429e-4 -0.98242 0-1.0061-0.017909-1.8412 0.68518-1.9922 1.6816l-0.00977 0.0625-0.00195 0.0625c-0.033402 1.3276-0.0046266 2.6337-0.013671 3.9121l0.011719-0.14844c-0.088512 0.55643 0.038003 1.0992 0.3457 1.5566s0.85905 0.83386 1.5078 0.86719l0.023437 2e-3h0.025391c2.3626 0.0037 4.7241 0.0021 7.0859 2e-3v1.5019h2v-1.502c2.2263-4.25e-4 4.4538 9.36e-4 6.6797 2e-3l-0.14844-0.01172c0.50809 0.07576 1.0179-0.0074 1.4805-0.27344 0.4626-0.26602 0.87966-0.7813 0.96484-1.4141l0.0078-0.05273 2e-3 -0.05469c0.033373-1.3277 0.0045739-2.6338 0.013638-3.9122l-0.01172 0.14844c0.088513-0.55643-0.038002-1.0992-0.3457-1.5566s-0.85902-0.83389-1.5078-0.86719l-0.02344-0.00195h-0.02539c-0.36205-5.564e-4 -0.7239 4.277e-4 -1.0859 0v-1.5039zm-0.98633 3.5c5.3266 0.00233 10.651-0.0041 15.975 0.00391 0.01395 0.029747 0.02738 0.088468 0.02344 0.11328l-0.011721 0.074215v0.074219c-9e-3 1.2631 0.01235 2.503-0.01367 3.7188-0.04078 0.01455-0.10884 0.0347-0.1582 0.02734l-0.074221-0.011715h-0.07422c-5.2247-0.0024-10.446 0.0041-15.668-0.0039-0.013949-0.02974-0.027385-0.08847-0.023438-0.11328l0.011721-0.074224v-0.07422c0.0089728-1.2683-0.012892-2.5137 0.013672-3.7344zm0.98633-2.5h14zm-1 1.5c-0.475-0.0084552-0.91516 0.36229-0.98633 0.83203-0.032617 1.2964-0.0044922 2.5969-0.013672 3.8945-0.092943 0.58429 0.28416 1.2371 0.91602 1.2695 5.2547 0.0082 10.509 0.0015 15.764 0.0039 0.56654 0.08447 1.2232-0.21254 1.3066-0.83203 0.03262-1.2964 0.004472-2.5969 0.013672-3.8945 0.092943-0.58429-0.28416-1.2371-0.91602-1.2695-5.3612-0.0082399-10.723-0.0015462-16.084-0.0039062zm7 7.5h2z" color="#000000" color-rendering="auto" dominant-baseline="auto" image-rendering="auto" shape-rendering="auto" solid-color="#000000" stop-color="#000000" style="font-feature-settings:normal;font-variant-alternates:normal;font-variant-caps:normal;font-variant-east-asian:normal;font-variant-ligatures:normal;font-variant-numeric:normal;font-variant-position:normal;font-variation-settings:normal;inline-size:0;isolation:auto;mix-blend-mode:normal;paint-order:normal;shape-margin:0;shape-padding:0;text-decoration-color:#000000;text-decoration-line:none;text-decoration-style:solid;text-indent:0;text-orientation:mixed;text-transform:none;white-space:normal"/>
 </g>
</svg>
