<?xml version="1.0" encoding="UTF-8"?>
<!DOCTYPE svg PUBLIC "-//W3C//DTD SVG 1.1//EN" "http://www.w3.org/Graphics/SVG/1.1/DTD/svg11.dtd">
<svg xmlns="http://www.w3.org/2000/svg" xmlns:xlink="http://www.w3.org/1999/xlink" version="1.1" width="42" height="42" viewBox="0 0 42 42">
<style>path{fill:#000}@media (prefers-color-scheme:dark){path{fill:#fff}}</style>
<path d="m 14.067476,3.1992555 c -4.3199628,0 -7.8320509,3.515985 -7.8320509,7.8359095 v 4.542992 H 2.8077109 v 13.546847 c 0,3.3456 2.7235125,6.0703 6.0722495,6.0703 h 9.2402266 c -0.936491,-0.63379 -1.634796,-1.589442 -1.937499,-2.724587 -0.36892,-1.374841 -0.106205,-2.808945 0.67578,-3.947263 0.113537,-2.339716 0.916384,-4.625951 2.316397,-6.527357 1.519861,-2.068498 3.696718,-3.604233 6.156245,-4.351559 v -2.066381 h -3.427729 v -4.542992 c 0,-4.3199245 -3.512844,-7.8359095 -7.835905,-7.8359095 z m 0,3.380867 c 2.459527,0 4.458973,1.99869 4.458973,4.4550425 v 4.542992 H 9.6123951 v -4.542992 c 0,-2.4563525 1.9986899,-4.4550425 4.4550809,-4.4550425 z M 28.811602,19.376961 c -0.13561,0 -0.269934,0.01912 -0.402369,0.0254 v -0.01561 c -0.0347,0.0031 -0.06883,0.0027 -0.103521,0.0059 l -0.0039,-0.0039 c -0.167131,0.01262 -0.328214,0.02948 -0.49217,0.05469 -0.504529,0.05363 -1.011137,0.131981 -1.515628,0.267591 -4.430325,1.1856 -7.320227,5.250104 -7.197279,9.642557 -0.677934,0.621203 -0.992466,1.582866 -0.740221,2.535156 0.255421,0.945978 1.015824,1.626747 1.908208,1.822262 1.693266,3.131149 4.987729,5.089738 8.535118,5.089738 0.832479,0 1.673726,-0.10696 2.515654,-0.333731 4.464983,-1.1952 7.366715,-5.315943 7.193235,-9.74623 0.577134,-0.618028 0.832252,-1.514041 0.595653,-2.390627 -0.23622,-0.879761 -0.902173,-1.525531 -1.712731,-1.771465 -1.677543,-3.184781 -5.001146,-5.181657 -8.580056,-5.181657 z m 0,2.251956 c 1.346419,0 2.678249,0.369107 3.841776,1.072252 1.169839,0.703181 2.115439,1.706077 2.746091,2.904302 0.28063,0.529739 0.760101,0.926173 1.333985,1.099615 0.04728,0.01576 0.161386,0.06709 0.199219,0.20897 0.03783,0.138746 -0.03757,0.237997 -0.07226,0.269557 -0.40679,0.441448 -0.624831,1.025877 -0.599622,1.624969 0.06308,1.658608 -0.445871,3.319143 -1.429682,4.671875 -1.012195,1.393739 -2.427628,2.362809 -4.095685,2.81057 -0.636964,0.173405 -1.285984,0.257802 -1.935572,0.257802 -1.33697,0 -2.655231,-0.362192 -3.812485,-1.05275 -1.157215,-0.687383 -2.105234,-1.67418 -2.74216,-2.853507 -0.309015,-0.573883 -0.855232,-0.986266 -1.492196,-1.124975 -0.03152,-0.0063 -0.180472,-0.05208 -0.224617,-0.212902 -0.04097,-0.163955 0.06584,-0.270915 0.08791,-0.292988 0.482419,-0.438274 0.751332,-1.069153 0.732397,-1.71874 -0.04728,-1.649121 0.469304,-3.291931 1.453115,-4.628901 0.706356,-0.961738 1.6145,-1.705058 2.658217,-2.228523 l 0.0039,0.03712 0.0098,0.07034 0.0059,0.03708 0.0059,0.06055 c 0.01576,0.08201 0.02797,0.161423 0.04687,0.240264 0.06935,0.271181 0.176466,0.525203 0.318349,0.761688 0.148195,0.227037 0.325531,0.439862 0.527358,0.613304 0.201789,0.17658 0.428296,0.314646 0.667956,0.421871 0.242796,0.100914 0.499691,0.166186 0.751974,0.191395 0.107188,0.0032 0.210369,0.01096 0.314419,0.0078 l 0.214866,-1.271471 h -0.01368 l -0.03319,-0.0059 c 0.01534,-6.8e-4 0.03783,-0.002 0.01758,0 v -0.0039 h -0.01172 l -0.0469,-0.01172 c -0.06304,-0.01262 -0.120227,-0.04237 -0.173821,-0.06444 -0.113499,-0.05046 -0.215622,-0.107188 -0.300775,-0.179679 -0.08829,-0.0757 -0.163502,-0.157077 -0.226545,-0.242192 -0.05994,-0.0946 -0.107149,-0.188599 -0.13867,-0.2832 -0.0347,-0.0946 -0.05034,-0.198841 -0.05666,-0.287131 0.0031,-0.01262 0.0039,-0.02642 0.0039,-0.03904 l -0.0039,-0.0078 0.0039,-0.03322 v -0.06833 l 0.002,-0.04687 0.0039,-0.0078 v -0.01565 c 0.0063,-0.02521 0.0085,-0.04702 0.01172,-0.07226 0.02521,-0.08511 0.05473,-0.173103 0.0957,-0.251944 0.04732,-0.07567 0.09755,-0.148611 0.154318,-0.214828 0.01893,-0.01894 0.04161,-0.03035 0.06055,-0.04297 0.378368,-0.05991 0.755187,-0.09766 1.136731,-0.09766 z m 2.595666,5.486324 c -0.08198,0 -0.161386,0.01236 -0.240227,0.03126 -0.542362,0.145058 -0.854627,0.764031 -0.687496,1.378885 0.135609,0.52029 0.567572,0.882822 1.046891,0.882822 0.0788,0 0.16063,-0.0099 0.236334,-0.03515 0.274318,-0.07253 0.504718,-0.26744 0.630841,-0.544933 0.116674,-0.252246 0.136214,-0.547049 0.06055,-0.833991 -0.138746,-0.517113 -0.570746,-0.878891 -1.046891,-0.878891 z m -5.552693,1.488265 c -0.08202,0 -0.161424,0.0084 -0.240265,0.02736 -0.545499,0.148195 -0.852208,0.767924 -0.691389,1.382815 0.141884,0.52029 0.571503,0.878892 1.050785,0.878892 0.08198,0 0.161385,-0.01036 0.240226,-0.02929 0.542363,-0.145058 0.854627,-0.765997 0.687496,-1.38085 -0.138746,-0.520291 -0.570746,-0.878929 -1.046853,-0.878929 z m 6.066368,2.75588 c -0.38468,-0.02207 -0.71108,0.268383 -0.736327,0.656239 -0.03783,0.655861 -0.594142,1.292484 -1.291011,1.478513 -0.706318,0.189203 -1.51355,-0.0822 -1.873021,-0.63084 -0.21445,-0.321638 -0.645165,-0.40974 -0.966803,-0.195327 -0.318501,0.211276 -0.406601,0.6432 -0.195326,0.964838 0.548674,0.822992 1.554066,1.312517 2.582022,1.312517 0.271181,0 0.545688,-0.03492 0.810558,-0.107453 1.273927,-0.340535 2.250482,-1.491551 2.326186,-2.740232 0.0189,-0.384681 -0.271559,-0.713045 -0.656278,-0.738255 z"/>
</svg>
