<?xml version="1.0" encoding="UTF-8"?>
<svg width="24" height="24" clip-rule="evenodd" fill-rule="evenodd" stroke-linejoin="round" stroke-miterlimit="2" version="1.1" viewBox="0 0 24 24" xml:space="preserve" xmlns="http://www.w3.org/2000/svg">
    
    
        <path d="m8.923 12.75c2.171-1e-3 4.174-0.731 5.778-1.954l1.157 1.559-5e-3 4e-3 5e-3 6e-3c-1.932 1.467-4.332 2.336-6.929 2.335h-0.013c-2.598 1e-3 -4.997-0.8679-6.929-2.335l4e-3 -6e-3 -4e-3 -4e-3 1.157-1.5589c1.604 1.223 3.607 1.9529 5.777 1.954zm2.082-4.288c0.501-0.195 0.967-0.458 1.389-0.779l1.155 1.561c-1.292 0.97995-2.891 1.558-4.625 1.556h-3e-3c-1.734 0.0021-3.333-0.576-4.625-1.556l1.155-1.561c0.421 0.321 0.888 0.584 1.389 0.779l0.011-0.01c0.64 0.252 1.318 0.387 2.005 0.398h0.038 0.028 0.033c0.719-5e-3 1.407-0.148 2.039-0.398zm-2.083-5.452 7e-3 -0.01 2.31 3.122c-0.643 0.487-1.446 0.779-2.313 0.778h-7e-3c-0.867 1e-3 -1.67-0.291-2.313-0.778l2.31-3.122zm5.078 4.49h6v1.175h1.969v1h-1.969v2h1.969v1h-1.969v2h1.969v1h-1.969v2h1.969v1h-1.969v0.9781h-10v-0.9781h-2.031v-1h2.031v-2c2.578 0.054 6.275-1.377 7.716-3.3159zm0 8.403v2.25h0.969v-2.25zm2 0v2.25h1v-2.25zm2 0v2.25h1v-2.25z" fill-rule="nonzero"/>
    
</svg>
