<?xml version="1.0" encoding="UTF-8"?>
<svg width="24" height="24" version="1.1" viewBox="0 0 24 24" xmlns="http://www.w3.org/2000/svg">
 <ellipse cx="21.998" cy="21" rx=".85763" ry="1.2003" fill="none"/>
 <path d="m22 13c-0.55228 0-1-0.44772-1-1s0.44772-1 1-1zm0 1c-1.1046 0-2-0.89543-2-2s0.89543-2 2-2zm-16-10v3h-1v1.6309c3.96 1.28 7.0891 4.4091 8.3691 8.3691h0.63086v3h2v-3h2v3h2v-3h2v-10h-2v-3h-2v3h-2v-3h-2v3h-2v-3h-2v3h-2v-3zm-5 6v2c4.9706 0 9 4.0294 9 9h2c0-6.08-4.93-11-11-11zm0 4v2c2.7614 0 5 2.2386 5 5h2c0-3.866-3.134-7-7-7zm0 4v3h3c0-1.6569-1.3431-3-3-3z" fill-rule="evenodd"/>
</svg>
