<?xml version="1.0" encoding="UTF-8"?>
<!DOCTYPE svg PUBLIC "-//W3C//DTD SVG 1.1//EN" "http://www.w3.org/Graphics/SVG/1.1/DTD/svg11.dtd">
<svg xmlns="http://www.w3.org/2000/svg" xmlns:xlink="http://www.w3.org/1999/xlink" version="1.1" width="42" height="42" viewBox="0 0 42 42">
<style>path{fill:#000}@media (prefers-color-scheme:dark){path{fill:#fff}}</style>
<path d="M 21,4.0996094 C 11.664845,4.0996094 4.0996094,11.664845 4.0996094,21 4.0996094,30.332161 11.664845,37.900391 21,37.900391 30.335155,37.900391 37.900391,30.332161 37.900391,21 37.900391,11.664845 30.335155,4.0996094 21,4.0996094 Z m 0,2.0273437 c 3.97298,0 7.707294,1.5471382 10.515625,4.3554689 2.811325,2.808331 4.355469,6.544598 4.355469,10.517578 0,3.969986 -1.544144,7.707294 -4.355469,10.515625 C 28.707294,34.323956 24.97298,35.871094 21,35.871094 c -3.97298,0 -7.706253,-1.547138 -10.517578,-4.355469 C 7.6740913,28.707294 6.1269531,24.969986 6.1269531,21 c 0,-3.97298 1.5471382,-7.709247 4.3554689,-10.517578 C 13.293747,7.6740913 17.02702,6.1269531 21,6.1269531 Z m 5.673828,4.2382809 c -1.590889,-0.04463 -3.437284,0.568144 -5.02539,2.15625 -0.835315,0.835314 -1.426359,2.419718 -1.626954,4.021485 -0.311372,0.06886 -0.614011,0.168134 -0.898437,0.296875 -1.50596,-2.245468 -3.573156,-4.779146 -4.896485,-6.105469 -0.197601,-0.197601 -0.976395,-0.155505 -2.71289,1.583984 -1.5628448,1.562845 -1.8144478,5.207037 1.005859,8.027344 0.838307,0.838308 2.421671,1.425317 4.023438,1.628906 0.06587,0.311372 0.168135,0.610106 0.296875,0.894532 -2.245467,1.50596 -4.782141,3.576021 -6.105469,4.902343 -0.200595,0.197601 -0.157458,0.97145 1.582031,2.710938 1.562845,1.562846 5.205996,1.814448 8.029297,-1.00586 0.835314,-0.838307 1.421411,-2.417764 1.625,-4.019531 0.314365,-0.06587 0.614012,-0.168135 0.898438,-0.296875 1.50596,2.245467 3.572114,4.778234 4.898437,6.101563 0.197601,0.197601 0.973403,0.156417 2.712891,-1.580078 1.562845,-1.562845 1.814447,-5.210943 -1.00586,-8.03125 -0.838308,-0.835314 -2.415812,-1.424405 -4.017578,-1.625 -0.06587,-0.314366 -0.168135,-0.617918 -0.296875,-0.902344 2.245467,-1.50596 4.774327,-3.571203 6.097656,-4.894531 0.200595,-0.200595 0.159411,-0.976397 -1.580078,-2.712891 -0.683744,-0.683745 -1.766547,-1.115674 -3.003906,-1.150391 z m -5.671875,9.111328 c 0.838308,0 1.519531,0.683177 1.519531,1.521485 0,0.841301 -0.681223,1.521484 -1.519531,1.521484 -0.841301,0 -1.521484,-0.680183 -1.521484,-1.521484 0,-0.838308 0.680183,-1.521485 1.521484,-1.521485 z"/>
</svg>
