<?xml version="1.0" encoding="UTF-8"?>
<!DOCTYPE svg PUBLIC "-//W3C//DTD SVG 1.1//EN" "http://www.w3.org/Graphics/SVG/1.1/DTD/svg11.dtd">
<svg xmlns="http://www.w3.org/2000/svg" xmlns:xlink="http://www.w3.org/1999/xlink" version="1.1" width="42" height="42" viewBox="0 0 42 42">
<style>path{fill:#000}@media (prefers-color-scheme:dark){path{fill:#fff}}</style>
<path d="m 19.460938,2.5976562 c -3.024551,0 -5.486329,2.4664292 -5.486329,5.4941407 V 24.396484 c 0,0.183306 0.024,0.362824 0.04297,0.542969 l 2.335938,-2.537109 V 8.0917969 c 0,-1.7161246 1.397617,-3.1113282 3.107422,-3.1113281 h 13.003906 c 1.716125,0 3.111328,1.3952035 3.111328,3.1113281 V 24.396484 C 35.576173,26.106287 34.18097,27.5 32.464845,27.5 H 20.806641 l -2.197266,2.382812 h 13.855469 c 3.027711,0 5.49414,-2.461777 5.49414,-5.486328 V 8.0917969 c 0,-3.0277115 -2.466429,-5.4941407 -5.49414,-5.4941407 z M 9.53125,12.117188 c -3.024551,0 -5.4902344,2.464476 -5.4902344,5.492187 v 16.304687 c 0,3.024552 2.4656834,5.488282 5.4902344,5.488282 h 13.001953 c 3.030872,0 5.492188,-2.463731 5.492188,-5.488282 v -2.078124 h -2.378907 v 2.078124 c 0,1.712964 -1.393996,3.107422 -3.113281,3.107422 H 9.53125 c -1.7129641,0 -3.1035156,-1.394458 -3.1035156,-3.107422 V 17.609375 c 0,-1.712964 1.3905515,-3.105469 3.1035156,-3.105469 h 2.488281 v -2.386718 z m 11.914062,0 c -0.840679,0 -1.527343,0.686663 -1.527343,1.527343 0,0.837519 0.686664,1.519531 1.527343,1.519531 h 4.076172 L 14.298828,27.353516 c -0.268639,0.303404 -0.405397,0.699724 -0.376953,1.107422 0.02212,0.404537 0.206362,0.773584 0.509766,1.039062 0.278119,0.249676 0.638039,0.382812 1.007812,0.382812 0.436142,0 0.849863,-0.183776 1.140625,-0.515624 L 27.458984,17.566406 v 3.619141 c 0,0.84068 0.685919,1.523437 1.523438,1.523437 0.84068,0 1.523437,-0.682757 1.523437,-1.523437 v -9.068359 z m -11.421874,4.121093 c -0.9038893,0 -1.6445318,0.741388 -1.6445318,1.648438 0,0.900728 0.7406425,1.642578 1.6445318,1.642578 0.907049,0 1.642578,-0.74185 1.642578,-1.642578 0,-0.90705 -0.73553,-1.648438 -1.642578,-1.648438 z m 0,5.275391 c -0.9038893,0 -1.6445318,0.739434 -1.6445318,1.646484 0,0.900728 0.7406425,1.644532 1.6445318,1.644532 0.907049,0 1.642578,-0.743804 1.642578,-1.644532 0,-0.90705 -0.73553,-1.646484 -1.642578,-1.646484 z m 0,5.27539 c -0.9038893,0 -1.6445318,0.73553 -1.6445318,1.642579 0,0.903889 0.7406425,1.646484 1.6445318,1.646484 0.907049,0 1.642578,-0.742595 1.642578,-1.646484 0,-0.907049 -0.73553,-1.642579 -1.642578,-1.642579 z m 0,5.271485 c -0.9038893,0 -1.6445318,0.739434 -1.6445318,1.646484 0,0.903888 0.7406425,1.646485 1.6445318,1.646485 0.907049,0 1.642578,-0.742597 1.642578,-1.646485 0,-0.90705 -0.73553,-1.646484 -1.642578,-1.646484 z m 6.011718,0 c -0.903889,0 -1.642578,0.736274 -1.642578,1.646484 0,0.903889 0.738689,1.642578 1.642578,1.642578 0.907049,0 1.644532,-0.738689 1.644532,-1.642578 0,-0.91021 -0.737483,-1.646484 -1.644532,-1.646484 z m 6.011719,0 c -0.903889,0 -1.642578,0.736274 -1.642578,1.646484 0,0.903889 0.738689,1.642578 1.642578,1.642578 0.907049,0 1.644531,-0.738689 1.644531,-1.642578 0,-0.91021 -0.737482,-1.646484 -1.644531,-1.646484 z"/>
</svg>
