<?xml version="1.0" encoding="UTF-8"?>
<!DOCTYPE svg PUBLIC "-//W3C//DTD SVG 1.1//EN" "http://www.w3.org/Graphics/SVG/1.1/DTD/svg11.dtd">
<svg xmlns="http://www.w3.org/2000/svg" xmlns:xlink="http://www.w3.org/1999/xlink" version="1.1" width="42" height="42" viewBox="0 0 42 42">
<style>path{fill:#000}@media (prefers-color-scheme:dark){path{fill:#fff}}</style>
<path d="m 14.458245,2.5643353 c -0.349491,0 -0.698061,0.2602263 -0.965897,0.7860978 L 4.9769864,20.107278 c -0.532404,1.051742 -1.3268568,2.811196 -1.7645386,3.9054 0,0 -0.6355684,1.601723 -0.6355684,3.639884 0,6.509699 5.277584,11.783102 11.7872846,11.783102 6.5097,0 11.785195,-5.273403 11.785195,-11.783102 0,-1.829119 -0.441135,-3.081671 -0.441135,-3.081671 -0.395221,-1.113802 -1.148768,-2.885933 -1.67464,-3.940942 L 15.422051,3.356705 C 15.157482,2.8275673 14.807738,2.5643352 14.458245,2.5643353 Z m 17.545033,4.4740669 c -0.222107,0 -0.4439,0.1665131 -0.610481,0.4996738 l -5.410693,10.641589 c -0.101252,0.195978 -0.215749,0.433066 -0.3366,0.687835 l 0.382595,0.765191 c 0.267835,0.535671 0.578505,1.222095 0.882269,1.927613 0.01633,-0.04899 0.02692,-0.08219 0.03345,-0.09199 0.248237,-0.633658 0.721587,-1.6755 1.028617,-2.283028 l 4.014117,-7.900701 4.099834,8.218485 c 0.287432,0.578132 0.72824,1.615525 0.947081,2.232852 0.02286,0.06206 0.158891,0.548762 0.158891,1.231414 0,2.897192 -2.353695,5.251802 -5.247621,5.251802 -1.38817,0 -2.653198,-0.537679 -3.593887,-1.419575 0.0196,0.2711 0.02927,0.553678 0.02927,0.850909 0,0.617328 -0.04196,1.229268 -0.117078,1.83353 1.087671,0.614061 2.342522,0.965897 3.681697,0.965897 4.131848,0 7.478383,-3.350715 7.478383,-7.482563 0,-1.162796 -0.280152,-1.956881 -0.280152,-1.956881 -0.251504,-0.705517 -0.728908,-1.830873 -1.062069,-2.500461 L 32.613758,7.5401667 C 32.447177,7.2070059 32.225385,7.0384023 32.003278,7.0384022 Z m -17.56803,1.8398032 6.604475,13.2444926 c 0.463812,0.93089 1.150444,2.540308 1.503203,3.533258 0.02939,0.09472 0.261336,0.889336 0.261336,1.996606 0,4.654452 -3.785647,8.440096 -8.440098,8.440096 -4.6577192,0 -8.4421878,-3.785644 -8.4421878,-8.440096 0,-1.273851 0.3750209,-2.329559 0.4076837,-2.421015 0.4017528,-1.006014 1.1419679,-2.651502 1.628644,-3.608523 z M 13.231013,21.514309 v 3.332552 H 9.8963693 v 2.283028 h 3.3346437 v 3.332554 h 2.280938 v -3.332554 h 3.334643 v -2.283028 h -3.334643 v -3.332552 z m 15.939385,0.04808 v 2.280937 h 5.54659 v -2.280937 z"/>
</svg>
