<?xml version="1.0" encoding="UTF-8"?>
<!DOCTYPE svg PUBLIC "-//W3C//DTD SVG 1.1//EN" "http://www.w3.org/Graphics/SVG/1.1/DTD/svg11.dtd">
<svg xmlns="http://www.w3.org/2000/svg" xmlns:xlink="http://www.w3.org/1999/xlink" version="1.1" width="42" height="42" viewBox="0 0 42 42">
<style>path{fill:#000}@media (prefers-color-scheme:dark){path{fill:#fff}}</style>
<path d="m 20.963795,2.5639947 c -0.61075,0 -1.107899,0.4971485 -1.107899,1.1078982 v 3.2494726 c 0,0.6107497 0.497149,1.1042776 1.107899,1.1042776 0.610749,0 1.104277,-0.4935279 1.104277,-1.1042776 V 3.6718929 c 0,-0.6107497 -0.493529,-1.1078982 -1.104277,-1.1078982 z m -8.63871,2.3117418 c -0.142838,0.017759 -0.285903,0.064451 -0.418178,0.1412027 -0.529098,0.3037418 -0.707436,0.9824945 -0.403695,1.5115932 l 1.622021,2.8131924 c 0.307008,0.5323646 0.984305,0.7110572 1.513404,0.4073155 0.529099,-0.3070078 0.710703,-0.9824945 0.403695,-1.511593 L 13.420311,5.4224445 C 13.192504,5.0256205 12.753599,4.8224592 12.325085,4.8757365 Z m 17.34983,0 c -0.428974,-0.053277 -0.865609,0.149884 -1.093415,0.546708 l -1.623832,2.8150028 c -0.307008,0.5290985 -0.123593,1.2045852 0.405505,1.511593 0.529099,0.3037417 1.204586,0.1250491 1.511594,-0.4073155 L 30.498598,6.5285324 C 30.805606,5.9994337 30.622191,5.320681 30.093093,5.0169392 29.960002,4.9401872 29.817907,4.8934956 29.674915,4.8757365 Z M 21.00362,10.24506 c -4.846804,0 -8.788963,3.897761 -8.788963,8.685777 0,1.701607 0.520451,3.363497 1.545988,4.947526 0.192697,0.293945 0.423754,0.571021 0.675239,0.861698 0.261284,0.307008 0.872561,1.029418 0.872561,1.30703 v 2.700955 c 0,1.316215 1.192714,2.847589 2.724488,2.847589 h 6.024649 c 1.3848,0 2.391394,-1.198239 2.391394,-2.847589 v -2.700955 c 0,-0.267814 0.555718,-0.865947 0.888854,-1.221946 0.307008,-0.32987 0.622885,-0.672564 0.87437,-1.048158 1.022271,-1.518709 1.562281,-3.193534 1.562281,-4.84615 0,-4.788016 -3.933854,-8.685777 -8.770861,-8.685777 z M 6.1375095,11.204515 C 5.7097602,11.151238 5.2707289,11.352588 5.040473,11.749412 4.7334652,12.27851 4.9168796,12.959074 5.4459782,13.262816 l 2.8113822,1.622021 C 8.789725,15.191844 9.467022,15.00843 9.7707638,14.479331 10.077772,13.950233 9.8943572,13.274745 9.3652586,12.967738 L 6.5538764,11.343907 C 6.4216018,11.267153 6.2800925,11.222274 6.1375095,11.204515 Z m 29.7249805,0 c -0.142583,0.01776 -0.284092,0.06264 -0.416366,0.139392 l -2.811383,1.623831 c -0.529099,0.307007 -0.711058,0.982495 -0.407315,1.511593 0.307007,0.529099 0.986115,0.712513 1.515214,0.405506 l 2.811382,-1.622021 c 0.529098,-0.303742 0.712513,-0.984306 0.405505,-1.513404 -0.230256,-0.396824 -0.669288,-0.598175 -1.097037,-0.544897 z m -14.85887,2.358808 c 3.004758,0 5.448977,2.411747 5.448977,5.367514 0,1.250893 -0.543491,2.318152 -0.99747,2.994222 -0.104513,0.160036 -0.33296,0.402068 -0.548518,0.637222 -0.75119,0.806713 -1.775896,1.907313 -1.775896,3.48481 v 2.226659 h -4.500384 v -2.226659 c 0,-1.499112 -0.999196,-2.678881 -1.665468,-3.459465 -0.166568,-0.195963 -0.339437,-0.401268 -0.414556,-0.512313 -0.672805,-1.038602 -1.013764,-2.096078 -1.013764,-3.144476 0,-2.955767 2.452524,-5.367514 5.467079,-5.367514 z m -3.846868,19.733985 c -0.61075,0 -1.107898,0.497149 -1.107898,1.107899 0,0.610749 0.497148,1.107897 1.107898,1.107897 h 7.58693 c 0.61075,0 1.106088,-0.497148 1.106088,-1.107897 0,-0.61075 -0.495339,-1.107899 -1.106088,-1.107899 z m 0,3.924711 c -0.61075,0 -1.107898,0.495339 -1.107898,1.106088 0,0.61075 0.497148,1.107898 1.107898,1.107898 h 7.58693 c 0.61075,0 1.106088,-0.497149 1.106088,-1.107898 0,-0.61075 -0.495339,-1.106088 -1.106088,-1.106088 z"/>
</svg>
