<?xml version="1.0" encoding="UTF-8"?>
<svg width="24" height="24" version="1.1" viewBox="0 0 24 24" xmlns="http://www.w3.org/2000/svg">
 <path d="m9.8398 2.0039a4.0008 4 0 0 0-1.2383 0.24805 4.0008 4 0 0 0-1.002 6.9473v1.6016a0.80016 0.8 0 0 0 0.80078 0.79883h2.1719a7 7 0 0 1 1.8281-1.5898v-0.81055a4.0008 4 0 0 0-2.5605-7.1953zm-4.8965 1.5957a3.2006 3.2 0 0 0-1.3438 5.9609v1.2402a0.80016 0.8 0 0 0 0.79883 0.79883h1.6016v-1.6953a5.5371 5.536 0 0 1-1.6016-3.9043 5.4331 5.432 0 0 1 0.54492-2.4004zm10.113 0a5.4331 5.432 0 0 1 0.54492 2.4004 5.5371 5.536 0 0 1-0.97852 3.1543 7 7 0 0 1 1.377-0.1543 7 7 0 0 1 1.0273 0.076172 3.2006 3.2 0 0 0-1.9707-5.4766zm0.94336 6.4004c-3.3429 0.08571-6 2.7429-6 6 0 3.3429 2.6571 6 6 6s6-2.6571 6-6-2.6571-6-6-6zm0 1.7148c2.4 0 4.2852 1.8852 4.2852 4.2852s-1.8852 4.2852-4.2852 4.2852-4.2852-1.8852-4.2852-4.2852 1.8852-4.2852 4.2852-4.2852zm-11.602 0.68555v0.79883a0.80016 0.8 0 0 0 0.80078 0.80078h0.93555a2.3445 2.344 0 0 1-0.13477-0.80078v-0.79883h-1.6016zm4.002 0v0.79883a0.80016 0.8 0 0 0 0.79883 0.80078h0.09375a7 7 0 0 1 0.7168-1.5996h-1.6094zm6.7422 0.17188v4.2852l3.0859 1.8848 0.68555-1.0273-2.4863-1.457v-3.6855h-1.2852z"/>
</svg>
