<?xml version="1.0" encoding="UTF-8"?>
<svg width="24" height="24" version="1.1" viewBox="0 0 24 24" xmlns="http://www.w3.org/2000/svg">
 <path d="m5.3324 18.409h-3.1174v-1.0391h3.1174c0.28576 0 0.51957 0.23381 0.51957 0.51957s-0.23381 0.51957-0.51957 0.51957m4.5306 2.0263-3.133-7.7-0.9664 0.39487 0.19744 0.478-2.4939 2.1406 0.44683 1.1015h1.4184c0.57152 0 1.0391 0.46761 1.0391 1.0391s-0.46761 1.0391-1.0391 1.0391h-0.57152l0.66505 1.6314 3.2837-0.21302 0.19224 0.478 0.9612-0.38968m2.125-0.61828-1.2002-0.49878 0.39487-0.9612 1.2002 0.49878-0.39487 0.9612m-1.0547-3.7825-0.40526-0.9612 1.4496-0.5975 0.39487 0.9612-1.4392 0.5975m-1.8652-2.7849-0.9612-0.39487 0.49878-1.2002 0.9612 0.40007zm6.6054 2.3104v-2.9718c-0.32787 0.11859-0.67667 0.18138-1.0464 0.18138-1.744 0-3.1392-1.3952-3.1392-3.1392 0-0.88594 0.3488-1.6812 0.94873-2.2532-0.16045-0.3767-0.25113-0.79526-0.25113-1.2347 0-1.744 1.3952-3.1392 3.1392-3.1392 1.0882 0 2.0509 0.55808 2.616 1.3952h0.1744a3.8368 3.8368 0 0 1 3.8368 3.8368 3.8368 3.8368 0 0 1-3.8368 3.8368c-0.3488 0-0.69759-0.04883-1.0464-0.1465v3.6345z" stroke-width=".51957"/>
</svg>
