<svg width="24" height="24" version="1.1" viewBox="0 0 24 24" xmlns="http://www.w3.org/2000/svg">
 <style>path{fill:#000}@media (prefers-color-scheme:dark){path{fill:#fff}}</style>
 <path d="m10 2v2h0.42578l-5.8555 5h3.082l4.3145-3.6875 4.3555 3.6875h3.0957l-5.9043-5h0.48633v-2h-4zm-8 8v2h3.252l10.545 3.1074-8.459 3.0137c-1.0369 0.37518-0.77065 1.91 0.33203 1.9141h6.7539c0.54472-2.8e-5 0.9863-0.4416 0.98633-0.98633-2.8e-5 -0.54472-0.4416-0.9863-0.98633-0.98633h-1.0449l5.9395-2.1152c0.89883-0.32134 0.86274-1.6047-0.052734-1.875l-7.0352-2.0723h9.7695v-2h-16.668-0.085937-3.2461z"/>
</svg>
