<?xml version="1.0" encoding="UTF-8"?>
<!DOCTYPE svg PUBLIC "-//W3C//DTD SVG 1.1//EN" "http://www.w3.org/Graphics/SVG/1.1/DTD/svg11.dtd">
<svg xmlns="http://www.w3.org/2000/svg" xmlns:xlink="http://www.w3.org/1999/xlink" version="1.1" width="42" height="42" viewBox="0 0 42 42">
<style>path{fill:#000}@media (prefers-color-scheme:dark){path{fill:#fff}}</style>
<path d="m 25.769531,16.3125 c -1.120091,0 -2.211259,0.339424 -3.03125,0.808594 l 0.44336,1.011718 c 0.505097,-0.285307 1.466247,-0.673828 2.375,-0.673828 1.208853,0 1.90039,0.6741 1.90039,1.726563 0,1.001741 -0.59919,1.6624 -1.480469,2.457031 l -3.201171,2.833984 v 1.066407 h 6.111328 v -1.169922 h -4.25 l 2.15625,-1.884766 c 1.312409,-1.130658 2.105469,-2.000983 2.105469,-3.378906 -10e-7,-1.781579 -1.311401,-2.796875 -3.128907,-2.796875 z M 2.1132812,16.443359 v 9.09961 h 1.4433594 v -3.197266 h 2.9375 c 1.8703407,0 2.9882813,-1.340777 2.9882813,-2.951172 0,-1.521634 -1.1187719,-2.951172 -3.0039063,-2.951172 z m 8.9472658,0 v 9.097657 h 1.443359 v -5.392578 l -0.0918,-2.041016 h 0.01367 l 2.910157,6.511719 h 1.287109 l 2.898437,-6.511719 h 0.02539 l -0.08984,2.041016 v 5.392578 h 1.44336 V 16.443359 H 18.857422 L 16.023438,23.125 13.126953,16.443359 Z m 23.042969,0 -0.298828,4.445313 0.884765,0.560547 c 0.429016,-0.297986 0.98665,-0.638672 1.806641,-0.638672 1.261687,0 1.921875,0.715045 1.921875,1.845703 0,1.274368 -0.946306,1.898438 -2.195313,1.898438 -1.092617,0 -1.872686,-0.390476 -2.392578,-0.675782 l -0.466797,1.03711 c 0.623446,0.340254 1.613363,0.757812 3.054688,0.757812 2.195801,0 3.46875,-1.237051 3.46875,-3.082031 0,-1.597715 -1.077627,-2.794922 -2.990235,-2.794922 -0.803084,0 -1.452865,0.170763 -1.919922,0.46875 l 0.154297,-2.691406 h 4.261719 v -1.13086 z M 3.5566406,17.5625 h 2.5449219 c 1.1581319,0 1.859375,0.843961 1.859375,1.845703 0,1.052463 -0.7012431,1.820313 -1.859375,1.820313 H 3.5566406 Z m 27.5820314,6.703125 c -0.429016,0 -0.726563,0.26242 -0.726563,0.716797 0,0.467057 0.297547,0.705078 0.726563,0.705078 0.441696,0 0.755859,-0.250701 0.755859,-0.705078 0,-0.454377 -0.314163,-0.716797 -0.755859,-0.716797 z"/>
</svg>
