<?xml version="1.0" encoding="UTF-8"?>
<!DOCTYPE svg PUBLIC "-//W3C//DTD SVG 1.1//EN" "http://www.w3.org/Graphics/SVG/1.1/DTD/svg11.dtd">
<svg xmlns="http://www.w3.org/2000/svg" xmlns:xlink="http://www.w3.org/1999/xlink" version="1.1" width="42" height="42" viewBox="0 0 42 42">
<style>path{fill:#000}@media (prefers-color-scheme:dark){path{fill:#fff}}</style>
<path d="m 21.000154,0.1006964 c -0.945037,0 -1.708156,0.76650872 -1.708156,1.7081546 v 20.051892 c 0,0.945037 0.763119,1.708156 1.708156,1.708156 0.945037,0 1.708194,-0.763119 1.708194,-1.708156 V 1.808851 c 0,-0.94168488 -0.763157,-1.7081546 -1.708194,-1.7081546 z M 12.461302,6.499441 c -0.329241,-0.0012 -0.661757,0.09266 -0.955593,0.290677 -4.7486862,3.1815341 -7.5872648,8.488382 -7.5872648,14.199057 0,9.416854 7.6616198,17.081556 17.0815558,17.081556 9.420321,0 17.081556,-7.665087 17.081556,-17.081556 0,-5.710675 -2.838463,-11.0172149 -7.587265,-14.199057 -0.783615,-0.528034 -1.846502,-0.315757 -2.371146,0.467857 -0.524644,0.783614 -0.315757,1.846501 0.467857,2.3711447 3.803726,2.5458603 6.073973,6.7928633 6.073973,11.3597083 0,7.533329 -6.12868,13.665476 -13.665476,13.665476 -7.533329,0 -13.6654757,-6.131762 -13.6654757,-13.665476 0,-4.56723 2.2704007,-8.813926 6.0739727,-11.3597083 C 14.19161,9.104476 14.400497,8.041589 13.875853,7.257975 13.54796,6.768197 13.009139,6.501483 12.460339,6.499441 Z"/>
</svg>
