<?xml version="1.0" encoding="UTF-8"?>
<!DOCTYPE svg PUBLIC "-//W3C//DTD SVG 1.1//EN" "http://www.w3.org/Graphics/SVG/1.1/DTD/svg11.dtd">
<svg xmlns="http://www.w3.org/2000/svg" xmlns:xlink="http://www.w3.org/1999/xlink" version="1.1" width="42" height="42" viewBox="0 0 42 42">
<style>path{fill:#000}@media (prefers-color-scheme:dark){path{fill:#fff}}</style>
<path d="m 20.271484,4.3066406 c -8.735691,0 -15.8222653,7.0846224 -15.8222652,15.8203124 0,8.742225 7.0865742,15.828125 15.8222652,15.828125 0.06207,0 0.123476,-0.0098 0.185547,-0.0098 C 19.87879,35.311501 19.464302,34.536895 19.251953,33.6777 16.007921,33.439216 12.986189,32.072093 10.660156,29.74606 8.0923728,27.178277 6.6738281,23.762979 6.6738281,20.126919 c 0,-3.629526 1.4185447,-7.045497 3.9863279,-9.613281 2.564516,-2.5677833 5.981802,-3.982422 9.611328,-3.982422 3.639327,0 7.050043,1.4146387 9.621094,3.982422 2.456709,2.456709 3.837469,5.689464 3.955078,9.142578 0.552106,-0.398562 1.216155,-0.638672 1.941406,-0.638672 0.08821,0 0.16634,0.01822 0.257813,0.02148 C 35.484969,10.813007 28.644549,4.3066406 20.271484,4.3066406 Z m -3,5.1679688 c -1.012739,0 -1.835937,0.8206056 -1.835937,1.8300786 0,1.009471 0.823198,1.826171 1.835937,1.826171 1.006205,0 1.822266,-0.8167 1.822266,-1.826171 0,-1.009473 -0.816061,-1.8300786 -1.822266,-1.8300786 z m 5.873047,0 c -1.012739,0 -1.835937,0.8206056 -1.835937,1.8300786 0,1.009471 0.823198,1.826171 1.835937,1.826171 1.006205,0 1.822266,-0.8167 1.822266,-1.826171 0,-1.009473 -0.816061,-1.8300786 -1.822266,-1.8300786 z M 11.390625,15.361328 c -1.012739,0 -1.8359375,0.820606 -1.8359375,1.830078 0,1.009472 0.8231985,1.826172 1.8359375,1.826172 1.009472,0 1.826172,-0.8167 1.826172,-1.826172 0,-1.009472 -0.8167,-1.830078 -1.826172,-1.830078 z m 5.880859,0 c -1.012739,0 -1.835937,0.820606 -1.835937,1.830078 0,1.009472 0.823198,1.826172 1.835937,1.826172 1.006205,0 1.822266,-0.8167 1.822266,-1.826172 0,-1.009472 -0.816061,-1.830078 -1.822266,-1.830078 z m 5.873047,0 c -1.012739,0 -1.835937,0.820606 -1.835937,1.830078 0,1.009472 0.823198,1.826172 1.835937,1.826172 1.006205,0 1.822266,-0.8167 1.822266,-1.826172 0,-1.009472 -0.816061,-1.830078 -1.822266,-1.830078 z m 5.863281,0 c -1.009471,0 -1.830078,0.820606 -1.830078,1.830078 0,1.009472 0.820606,1.826172 1.830078,1.826172 1.006206,0 1.830079,-0.8167 1.830079,-1.826172 0,-1.009472 -0.823874,-1.830078 -1.830079,-1.830078 z m -6.560546,5.88086 c -0.61091,0 -1.113282,0.493884 -1.113282,1.111328 v 5.949218 H 23.5625 v -5.949218 c 0,-0.617444 -0.501057,-1.111329 -1.115234,-1.111328 z m 4.447265,0 c -0.61091,0 -1.109375,0.493884 -1.109375,1.111328 v 5.949218 h 2.226563 v -5.949218 c 0,-0.617444 -0.499744,-1.111329 -1.117188,-1.111328 z m 4.451172,0 c -0.617444,0 -1.113281,0.493884 -1.113281,1.111328 v 5.949218 h 2.220703 v -5.949218 c 0,-0.617444 -0.493245,-1.111329 -1.107422,-1.111328 z m 4.443359,0 c -0.610908,0 -1.109374,0.493884 -1.109374,1.111328 v 5.949218 h 2.224609 v -5.949218 c 0,-0.617444 -0.497791,-1.111329 -1.115235,-1.111328 z m -24.398437,0.002 c -1.012739,0 -1.8359375,0.820606 -1.8359375,1.830078 0,1.009472 0.8231985,1.828125 1.8359375,1.828125 1.009472,0 1.826172,-0.818653 1.826172,-1.828125 0,-1.009472 -0.8167,-1.830078 -1.826172,-1.830078 z m 5.880859,0 c -1.012739,0 -1.835937,0.820606 -1.835937,1.830078 0,1.009472 0.823198,1.828125 1.835937,1.828125 1.006205,0 1.822266,-0.818653 1.822266,-1.828125 0,-1.009472 -0.816061,-1.830078 -1.822266,-1.830078 z m 0,5.888671 c -1.012739,0 -1.835937,0.818653 -1.835937,1.828126 0,1.009471 0.823198,1.830078 1.835937,1.830078 1.006205,0 1.822266,-0.820606 1.822266,-1.830078 0,-1.009472 -0.816061,-1.828125 -1.822266,-1.828126 z m 4.060547,3.394532 v 1.947265 c 0,1.626917 1.312502,2.951172 2.949219,2.951172 h 5.394531 v 4.279297 c 0,0.0196 0.0059,0.03509 0.0059,0.05469 v 1.591796 h 3.330078 v -1.59375 -0.05273 -4.279297 h 1.861328 3.492187 c 1.63345,0 2.957032,-1.324255 2.957032,-2.951172 v -1.947265 z"/>
</svg>
