<?xml version="1.0" encoding="UTF-8"?>
<!DOCTYPE svg PUBLIC "-//W3C//DTD SVG 1.1//EN" "http://www.w3.org/Graphics/SVG/1.1/DTD/svg11.dtd">
<svg xmlns="http://www.w3.org/2000/svg" xmlns:xlink="http://www.w3.org/1999/xlink" version="1.1" width="42" height="42" viewBox="0 0 42 42">
<style>path{fill:#000}@media (prefers-color-scheme:dark){path{fill:#fff}}</style>
<path d="m 21.001953,2.8125 c -0.176797,0 -0.346132,0.071796 -0.46875,0.1972656 L 2.984375,22.431641 c -0.1910551,0.191055 -0.2462893,0.469608 -0.1464844,0.714843 0.105508,0.250938 0.3450776,0.408203 0.6074219,0.408204 H 9.1679688 V 39.1875 H 32.832031 V 23.554688 h 5.71875 c 0.268047,0 0.508672,-0.157266 0.611328,-0.408204 0.0998,-0.245235 0.04563,-0.523788 -0.142578,-0.714843 L 21.466797,3.0097656 C 21.341328,2.8842966 21.173047,2.8125 21.001953,2.8125 Z m 8.212891,13.654297 h 0.02344 c 0.05988,0.0057 0.120078,0.03566 0.154297,0.08984 0.01141,0.01426 0.01969,0.03473 0.02539,0.05469 0.0057,0.01141 0.0078,0.0257 0.0078,0.03711 v 0.01953 c 0,0.02852 7.88e-4,0.0484 -0.0078,0.06836 l -0.0078,0.02539 c -0.188203,0.404923 -0.345703,0.827382 -0.488281,1.263672 -0.01141,0.03992 -0.02962,0.08524 -0.04102,0.130859 -0.07984,0.253789 -0.150312,0.515899 -0.21875,0.775391 -0.09695,0.382111 -0.181874,0.773398 -0.261718,1.164062 -0.03422,0.179649 -0.06825,0.360469 -0.09961,0.542969 -0.02566,0.134024 -0.04946,0.264413 -0.07227,0.398437 -0.03422,0.185352 -0.06328,0.371445 -0.0918,0.5625 -0.03422,0.19961 -0.06238,0.406015 -0.09375,0.611329 -0.01711,0.114063 -0.03367,0.23164 -0.05078,0.345703 -0.02852,0.191055 -0.05742,0.382108 -0.08594,0.570312 -0.02852,0.191055 -0.05742,0.383008 -0.08594,0.568359 -0.04563,0.325079 -0.09621,0.647266 -0.15039,0.960938 -0.102656,0.613088 -0.213632,1.214257 -0.347656,1.798828 -0.06844,0.296563 -0.143867,0.588046 -0.226563,0.878906 -0.05133,0.185352 -0.108087,0.375352 -0.167969,0.566407 -0.06273,0.185352 -0.128671,0.371132 -0.191406,0.550781 -0.03707,0.09125 -0.07125,0.180234 -0.105469,0.271484 -0.07129,0.179649 -0.150624,0.355351 -0.230468,0.529297 -0.03992,0.08555 -0.08223,0.178125 -0.125,0.263672 -0.08555,0.171094 -0.177383,0.333711 -0.271485,0.501953 -0.142578,0.248087 -0.301406,0.483867 -0.466797,0.714844 -0.171094,0.23668 -0.354022,0.456054 -0.550781,0.669922 -0.789884,0.852618 -1.813474,1.550545 -3.167969,2.041015 L 21.625,33.498047 c -0.08555,0.02566 -0.171367,0.04644 -0.259766,0.06641 -0.02281,0.0057 -0.04359,0.01082 -0.06641,0.01367 -0.0827,0.01426 -0.162343,0.03066 -0.242187,0.04492 -0.0057,0 -0.008,1.59e-4 -0.01367,0.0059 -0.08555,0.01426 -0.175118,0.0266 -0.257813,0.03516 -0.02566,0.0057 -0.04555,0.006 -0.06836,0.01172 -0.07699,0.0029 -0.149571,0.01383 -0.226563,0.01953 h -0.0293 c -0.08555,0.0029 -0.170313,0.008 -0.25586,0.01367 h -0.06641 -0.08008 -0.105469 c -0.02852,-0.0057 -0.06238,-0.0059 -0.09375,-0.0059 -0.06844,0 -0.134687,-0.0049 -0.203125,-0.0078 -0.02281,0 -0.03668,-1.59e-4 -0.05664,-0.0059 -0.08555,-0.0057 -0.176171,-0.01399 -0.261718,-0.02539 -0.02566,0 -0.04555,-0.0069 -0.06836,-0.0098 -0.06273,-0.0057 -0.125819,-0.01699 -0.191406,-0.03125 -0.03137,-0.0057 -0.06043,-0.008 -0.0918,-0.01367 -0.05703,-0.01141 -0.113789,-0.01984 -0.167969,-0.03125 -0.03137,-0.0086 -0.06238,-0.01399 -0.09375,-0.02539 -0.05703,-0.0086 -0.113788,-0.0239 -0.167968,-0.04102 -0.03137,-0.0086 -0.05742,-0.01293 -0.08594,-0.02148 -0.07129,-0.01711 -0.134687,-0.03668 -0.203125,-0.05664 -0.01711,-0.0029 -0.03457,-0.01013 -0.04883,-0.02148 -0.06559,-0.01996 -0.127773,-0.03878 -0.193359,-0.06445 -0.0057,0.0057 -0.0059,0.01172 -0.0059,0.01172 -0.410626,0.841213 -0.718437,1.679608 -0.992187,2.460937 -0.156837,0.450548 -0.577851,0.734375 -1.03125,0.734376 -0.119766,0 -0.24246,-0.01882 -0.359375,-0.06445 -0.567462,-0.193907 -0.873438,-0.816404 -0.673828,-1.386718 0.293712,-0.849767 0.629842,-1.759255 1.091797,-2.703125 0.03137,-0.05988 0.06059,-0.108829 0.09766,-0.160157 -0.01426,-0.01426 -0.02872,-0.02464 -0.04297,-0.0332 -0.01996,-0.01996 -0.04645,-0.03953 -0.06641,-0.05664 -0.05418,-0.05418 -0.109884,-0.105978 -0.164063,-0.160157 -0.0086,-0.0086 -0.01489,-0.01383 -0.02344,-0.01953 -0.06273,-0.06559 -0.121758,-0.12582 -0.181641,-0.191406 -0.01426,-0.01996 -0.03172,-0.04059 -0.04883,-0.06055 -0.03992,-0.04562 -0.08027,-0.0902 -0.123047,-0.138672 -0.01996,-0.02566 -0.03774,-0.0466 -0.06055,-0.07227 -0.03707,-0.04563 -0.0741,-0.08734 -0.105468,-0.138671 -0.01996,-0.02566 -0.04148,-0.04856 -0.05859,-0.07422 -0.03422,-0.05133 -0.07125,-0.098 -0.105469,-0.146484 -0.01426,-0.02566 -0.03457,-0.04464 -0.04883,-0.07031 -0.04562,-0.07129 -0.09109,-0.139648 -0.136719,-0.210937 0,-0.0029 -0.0039,-0.0098 -0.0039,-0.0098 -0.05133,-0.07984 -0.09394,-0.159493 -0.136719,-0.242188 -0.01426,-0.01996 -0.0248,-0.04269 -0.03906,-0.06836 -0.02852,-0.05703 -0.05742,-0.111836 -0.08594,-0.166016 -0.01426,-0.03137 -0.02872,-0.05847 -0.04297,-0.08984 -0.02281,-0.05418 -0.04465,-0.11168 -0.07031,-0.160157 -0.01426,-0.03422 -0.02676,-0.06524 -0.04102,-0.09375 -0.02281,-0.06273 -0.04464,-0.117851 -0.07031,-0.177734 -0.0086,-0.03137 -0.02074,-0.05457 -0.0293,-0.08594 -0.03137,-0.08555 -0.06027,-0.169414 -0.08594,-0.257813 -0.07699,-0.23668 -0.133008,-0.473359 -0.175781,-0.712891 -0.03992,-0.230977 -0.06972,-0.46328 -0.08398,-0.691406 -0.0057,-0.06559 -0.0059,-0.12582 -0.0059,-0.191406 -0.0029,-0.05703 -0.002,-0.115898 -0.002,-0.175781 0,-0.119766 0.0021,-0.234649 0.0078,-0.351563 0.0057,-0.05418 0.01,-0.112891 0.01563,-0.169922 0.01426,-0.173946 0.03894,-0.352187 0.07031,-0.517578 l 0.0293,-0.148437 0.02734,-0.144532 c 0.07984,-0.387814 0.20375,-0.779258 0.36914,-1.169921 0.08555,-0.19961 0.173789,-0.394882 0.279297,-0.585938 0.136875,-0.265195 0.29,-0.518906 0.466797,-0.78125 0.08555,-0.128321 0.173633,-0.259297 0.273438,-0.384766 0.0941,-0.131172 0.194218,-0.260352 0.296875,-0.388672 0.208164,-0.253789 0.433397,-0.504921 0.675781,-0.755859 0.119765,-0.125469 0.246679,-0.245625 0.375,-0.371094 0.128321,-0.125469 0.261561,-0.245468 0.398438,-0.365234 0.270899,-0.245235 0.561015,-0.48207 0.863281,-0.71875 0.07414,-0.05418 0.152578,-0.113945 0.232422,-0.173828 0.153985,-0.111211 0.313124,-0.224883 0.478515,-0.341797 0.159688,-0.114063 0.325,-0.225625 0.496094,-0.333984 0.171094,-0.111212 0.341836,-0.216914 0.521484,-0.328125 0.173946,-0.105508 0.353711,-0.206992 0.539063,-0.3125 0.0941,-0.05133 0.188945,-0.103868 0.277344,-0.152344 0.285157,-0.151134 0.571522,-0.301836 0.865234,-0.447266 0.196758,-0.0941 0.397148,-0.188202 0.599609,-0.285156 0.202462,-0.0884 0.410976,-0.180078 0.619141,-0.265625 0.208164,-0.09125 0.421953,-0.172266 0.638672,-0.257812 0.213868,-0.08555 0.432773,-0.16625 0.652344,-0.246094 0.330782,-0.116914 0.670586,-0.23043 1.015625,-0.335938 0.228126,-0.07699 0.462382,-0.145351 0.693359,-0.210937 1.057932,-0.302266 2.169334,-0.54707 3.324219,-0.732422 z m -7.34961,7.144531 c -0.278028,0.03315 -0.545116,0.17205 -0.730468,0.410156 -1.0009,1.277503 -1.914765,2.540934 -2.72461,3.75 -0.330782,0.501876 -0.194336,1.18289 0.304688,1.513672 0.185352,0.125469 0.395351,0.185547 0.603515,0.185547 0.353595,0 0.699141,-0.171757 0.910157,-0.488281 0.778479,-1.16344 1.663123,-2.375544 2.626953,-3.607422 0.376407,-0.476212 0.290665,-1.162655 -0.185547,-1.539062 -0.23668,-0.185353 -0.52666,-0.257759 -0.804688,-0.22461 z"/>
</svg>
