<?xml version="1.0" encoding="UTF-8"?>
<svg width="24" height="24" version="1.1" viewBox="0 0 24 24" xmlns="http://www.w3.org/2000/svg">
 <path d="m10.176 2-1.5996 2.4805 1.1367 1.7598-1.1367 1.7598 1.3848 0.7207 1.5918-2.4727 0.007813-0.0078125-1.1367-1.7598 1.1367-1.7676-1.3848-0.71289zm4.8242 0-1.5996 2.4805 1.1348 1.7598-1.1348 1.7598 1.4004 0.7207 1.5996-2.4727v-0.0078125l-1.1523-1.7598 1.1523-1.7676-1.4004-0.71289zm-9.623 0.072266-1.6016 2.4805 1.1367 1.7598-1.1367 1.7676 1.3848 0.7207 1.5918-2.4805h0.0078125l-1.1367-1.7676 1.1367-1.752-1.3828-0.72852zm-1.7773 7.9277c-0.88335 2.16e-4 -1.5994 0.71626-1.5996 1.5996v6.4004h1.5996v-1.5996h7.4434c0.05698-0.5598 0.19242-1.1088 0.40234-1.6309-0.36906-0.073045-0.63736-0.39338-0.64453-0.76953v-1.5996c-4.32e-4 -0.44168 0.35715-0.80014 0.79883-0.80078 0.44244-4.33e-4 0.80122 0.35834 0.80078 0.80078v0.75586c1.1383-1.3644 2.8228-2.154 4.5996-2.1562 0.30408 3.9e-4 0.60769 0.023893 0.9082 0.070312-0.2247-0.64047-0.82906-1.0695-1.5078-1.0703h-12.801zm1.5996 1.5996c0.44244-4.32e-4 0.80121 0.35834 0.80078 0.80078v1.5996c4.321e-4 0.44244-0.35834 0.80121-0.80078 0.80078-0.44168-6.47e-4 -0.79926-0.35911-0.79883-0.80078v-1.5996c-4.322e-4 -0.44168 0.35715-0.80014 0.79883-0.80078zm3.2012 0c0.44168 6.47e-4 0.79926 0.35911 0.79883 0.80078v1.5996c4.317e-4 0.44168-0.35715 0.80013-0.79883 0.80078-0.44244 4.32e-4 -0.80121-0.35834-0.80078-0.80078v-1.5996c-4.327e-4 -0.44244 0.35834-0.80121 0.80078-0.80078zm8.5996 0.40039a5 5 0 0 0-5 5c0 2.75 2.235 5 5 5a5 5 0 0 0 5-5 5 5 0 0 0-5-5zm0 1a4 4 0 0 1 4 4 4 4 0 0 1-4 4 4 4 0 0 1-4-4 4 4 0 0 1 4-4zm-0.5 1.5v3l2.625 1.5742 0.375-0.61328-2.25-1.3359v-2.625h-0.75z" stroke-width=".8"/>
</svg>
