<?xml version="1.0" encoding="UTF-8"?>
<svg width="24" height="24" version="1.1" viewBox="0 0 24 24" xmlns="http://www.w3.org/2000/svg">
 <path d="m10.176 2-1.5996 2.4805 1.1367 1.7598-1.1367 1.7598 1.3848 0.7207 1.5918-2.4727 0.007813-0.0078125-1.1367-1.7598 1.1367-1.7676-1.3848-0.71289zm4.8242 0-1.5996 2.4805 1.1348 1.7598-1.1348 1.7598 1.4004 0.7207 1.5996-2.4727v-0.0078125l-1.1523-1.7598 1.1523-1.7676-1.4004-0.71289zm-9.623 0.072266-1.6016 2.4805 1.1367 1.7598-1.1367 1.7676 1.3848 0.7207 1.5918-2.4805h0.0078125l-1.1367-1.7676 1.1367-1.752-1.3828-0.72852zm-1.7773 7.9277a1.6 1.6 0 0 0-1.5996 1.5996v6.4004h1.5996v-1.5996h7.4434a6 6 0 0 1 0.40234-1.6309 0.8 0.8 0 0 1-0.64453-0.76953v-1.5996a0.8 0.8 0 0 1 0.79883-0.80078 0.8 0.8 0 0 1 0.80078 0.80078v0.75586a6 6 0 0 1 4.5996-2.1562 6 6 0 0 1 0.9082 0.070312 1.6 1.6 0 0 0-1.5078-1.0703h-12.801zm1.5996 1.5996a0.8 0.8 0 0 1 0.80078 0.80078v1.5996a0.8 0.8 0 0 1-0.80078 0.80078 0.8 0.8 0 0 1-0.79883-0.80078v-1.5996a0.8 0.8 0 0 1 0.79883-0.80078zm3.2012 0a0.8 0.8 0 0 1 0.79883 0.80078v1.5996a0.8 0.8 0 0 1-0.79883 0.80078 0.8 0.8 0 0 1-0.80078-0.80078v-1.5996a0.8 0.8 0 0 1 0.80078-0.80078zm7.5723 0.40039c-0.12851 0-0.2353 0.090938-0.25586 0.21094l-0.19141 1.3242c-0.32384 0.125-0.60185 0.29524-0.86914 0.49024l-1.2793-0.5c-0.11309-0.045-0.25082-6.25e-4 -0.3125 0.10938l-1.0293 1.7305c-0.06682 0.11-0.03515 0.24531 0.0625 0.32031l1.084 0.81445c-0.02056 0.17-0.035157 0.335-0.035157 0.5s0.014607 0.32438 0.035157 0.48438l-1.084 0.83008c-0.09765 0.075-0.12933 0.21031-0.0625 0.32031l1.0293 1.7305c0.06168 0.11 0.19941 0.14938 0.3125 0.10938l1.2793-0.50391c0.26729 0.2 0.5453 0.36914 0.86914 0.49414l0.19141 1.3242c0.02056 0.12 0.12735 0.21094 0.25586 0.21094h2.0566c0.12851 0 0.23725-0.090938 0.25781-0.21094l0.18945-1.3242c0.32384-0.13 0.60185-0.29414 0.86914-0.49414l1.2793 0.50391c0.11309 0.04 0.25277 6.25e-4 0.31445-0.10938l1.0273-1.7305c0.06166-0.11 0.03514-0.24531-0.0625-0.32031l-1.084-0.83008c0.02057-0.16 0.035157-0.31938 0.035157-0.48438s-0.014627-0.33-0.035157-0.5l1.084-0.81445c0.09765-0.075 0.1242-0.21031 0.0625-0.32031l-1.0273-1.7305c-0.06169-0.11-0.20137-0.15438-0.31445-0.10938l-1.2793 0.5c-0.26729-0.195-0.5453-0.36524-0.86914-0.49024l-0.18945-1.3242c-0.020566-0.12-0.1293-0.21094-0.25781-0.21094h-2.0566zm1.0293 3.25a1.7991 1.75 0 0 1 1.7988 1.75 1.7991 1.75 0 0 1-1.7988 1.75 1.7991 1.75 0 0 1-1.8008-1.75 1.7991 1.75 0 0 1 1.8008-1.75z" stroke-width=".8"/>
</svg>
