<?xml version="1.0" encoding="UTF-8"?>
<!DOCTYPE svg PUBLIC "-//W3C//DTD SVG 1.1//EN" "http://www.w3.org/Graphics/SVG/1.1/DTD/svg11.dtd">
<svg xmlns="http://www.w3.org/2000/svg" xmlns:xlink="http://www.w3.org/1999/xlink" version="1.1" width="42" height="42" viewBox="0 0 42 42">
<style>path{fill:#000}@media (prefers-color-scheme:dark){path{fill:#fff}}</style>
<path d="m 10.515625,8.6914062 c -0.110067,0 -0.221252,0.029713 -0.320313,0.087891 l -7.6464839,4.4179688 7.6464839,4.416015 c 0.100632,0.05661 0.209054,0.08398 0.322266,0.08398 0.110066,0 0.218918,-0.02737 0.316406,-0.08398 0.194975,-0.113211 0.31836,-0.324358 0.31836,-0.550781 v -2.207031 h 17.412109 c 4.169957,0 7.566406,3.396449 7.566406,7.566406 0,4.173102 -3.396449,7.566406 -7.566406,7.566406 H 15.611328 c -0.918271,0 -1.660156,0.741885 -1.660156,1.660157 0,0.918272 0.741885,1.660156 1.660156,1.660156 h 12.953125 c 6.00021,0 10.886719,-4.883364 10.886719,-10.886719 0,-6.003355 -4.886509,-10.888672 -10.886719,-10.888672 H 11.152344 V 9.3261719 c 0,-0.2264231 -0.123385,-0.4368083 -0.31836,-0.546875 -0.09906,-0.058178 -0.208292,-0.087891 -0.318359,-0.087891 z"/>
</svg>
