<?xml version="1.0" encoding="UTF-8"?>
<!DOCTYPE svg PUBLIC "-//W3C//DTD SVG 1.1//EN" "http://www.w3.org/Graphics/SVG/1.1/DTD/svg11.dtd">
<svg xmlns="http://www.w3.org/2000/svg" xmlns:xlink="http://www.w3.org/1999/xlink" version="1.1" width="42" height="42" viewBox="0 0 42 42">
<style>path{fill:#000}@media (prefers-color-scheme:dark){path{fill:#fff}}</style>
<path d="M 20.484375,3.2402344 C 10.978696,3.633161 3.390625,11.444512 3.390625,21.050781 c 0,9.842025 7.980149,17.833985 17.837891,17.833985 6.698612,0 12.526634,-3.709052 15.582031,-9.166016 -2.099799,1.040469 -4.432628,1.675781 -6.931641,1.675781 -8.660102,0 -15.675781,-7.009392 -15.675781,-15.675781 0,-5.108045 2.490295,-9.6180102 6.28125,-12.4785156 z m 7.771484,0.7617187 -1.751953,4.7402344 -4.74414,1.7539065 4.74414,1.732422 1.751953,4.755859 1.734375,-4.755859 4.751954,-1.732422 -4.751954,-1.7539065 z m 8.554688,11.6738279 -1.109375,3.013672 -3.001953,1.109375 3.001953,1.097656 1.109375,3.015625 1.099609,-3.015625 3.009766,-1.097656 -3.009766,-1.109375 z"/>
</svg>
