<?xml version="1.0" encoding="UTF-8"?>
<svg width="24" height="24" version="1.1" viewBox="0 0 24 24" xmlns="http://www.w3.org/2000/svg">
 <style>path{fill:#000}@media (prefers-color-scheme:dark){path{fill:#fff}}</style>
 <path d="m8.9512 4a2 2 0 0 0-1.9512 2v2a2 2 0 0 0 2 2h4.75l-4.6328 2.4707a2 2 0 0 0-0.82227 2.7051l0.93945 1.7656a2 2 0 0 0 2.707 0.82422l5.293-2.8242a2 2 0 0 0 0.82422-2.707l-0.94141-1.7637a2 2 0 0 0-0.91797-0.87109 2 2 0 0 0 0.80078-1.5996v-2a2 2 0 0 0-2-2h-6a2 2 0 0 0-0.048828 0z"/>
</svg>
