<svg width="24" height="24" version="1.1" viewBox="0 0 24 24" xmlns="http://www.w3.org/2000/svg">
 <style>path{fill:#000}@media (prefers-color-scheme:dark){path{fill:#fff}}</style>
 <path d="m7.9512 4c-1.0855 0.026493-1.9515 0.91421-1.9512 2v2c0 1.1046 0.89543 2 2 2h2.6836c1.1694-0.52843 2.2184-1.4772 3.5469-1.5332 0.20656-0.00812 0.41413 0.00774 0.61719 0.046875 0.35145 0.052328 0.66793 0.17861 0.95508 0.35156 0.12972-0.27 0.19713-0.56569 0.19727-0.86523v-2c0-1.1046-0.89543-2-2-2h-6c-0.016275-1.987e-4 -0.032553-1.987e-4 -0.048828 0zm6.373 5.4121c-0.31836 0.00441-0.63106 0.084761-0.91211 0.23438l-5.2949 2.8242c-0.97369 0.52023-1.3417 1.731-0.82227 2.7051l0.93945 1.7656c0.06563 0.12322 0.14265 0.23459 0.22852 0.33789 0.084076 0.10115 0.17743 0.19442 0.27734 0.27539 3.573e-4 2.9e-4 0.0015956-2.91e-4 0.0019531 0 0.10061 0.081395 0.20725 0.15303 0.32031 0.21289 7.926e-4 4.22e-4 0.00116 0.001532 0.0019531 0.001953 0.11286 0.059569 0.23185 0.10749 0.35352 0.14453 0.49008 0.1506 1.0369 0.1151 1.5254-0.14453l5.2988-2.8164c0.97536-0.51841 1.3446-1.7297 0.82617-2.7051l-0.9375-1.7656-0.005859 0.003906-0.007812-0.015625c-0.35238-0.66069-1.0443-1.0692-1.793-1.0586z"/>
</svg>
