<?xml version="1.0" encoding="UTF-8"?>
<!DOCTYPE svg PUBLIC "-//W3C//DTD SVG 1.1//EN" "http://www.w3.org/Graphics/SVG/1.1/DTD/svg11.dtd">
<svg xmlns="http://www.w3.org/2000/svg" xmlns:xlink="http://www.w3.org/1999/xlink" version="1.1" width="42" height="42" viewBox="0 0 42 42">
<style>path{fill:#000}@media (prefers-color-scheme:dark){path{fill:#fff}}</style>
<path d="M 21,3.8574219 C 11.54612,3.8574219 3.8574219,11.546121 3.8574219,21 3.8574219,30.450843 11.54612,38.142578 21,38.142578 30.45388,38.142578 38.142578,30.450843 38.142578,21 38.142578,11.546121 30.45388,3.8574219 21,3.8574219 Z m 0,3.0839843 C 28.750177,6.9414062 35.058594,13.249823 35.058594,21 35.058594,28.750177 28.750177,35.058594 21,35.058594 13.249823,35.058594 6.9414062,28.750177 6.9414062,21 6.9414062,13.249823 13.249823,6.9414063 21,6.9414062 Z m 1.525391,8.0156248 -0.353516,9.048828 -5.384766,0.212891 v 2.501953 l 8.425782,0.322266 -0.470703,-12.085938 z"/>
</svg>
