<?xml version="1.0" encoding="UTF-8"?>
<!DOCTYPE svg PUBLIC "-//W3C//DTD SVG 1.1//EN" "http://www.w3.org/Graphics/SVG/1.1/DTD/svg11.dtd">
<svg xmlns="http://www.w3.org/2000/svg" xmlns:xlink="http://www.w3.org/1999/xlink" version="1.1" width="42" height="42" viewBox="0 0 42 42">
<style>path{fill:#000}@media (prefers-color-scheme:dark){path{fill:#fff}}</style>
<path d="M 20.9985 2.78317 C 20.8243 2.78317 20.6557 2.85172 20.5329 2.97455 L 2.94922 22.432 C 2.7607 22.6205 2.70357 22.9062 2.8064 23.1518 C 2.90923 23.3974 3.14917 23.5603 3.41766 23.5603 L 9.1475 23.5603 L 9.1475 39.2188 L 32.8495 39.2188 L 32.8495 23.5603 L 38.5793 23.5603 C 38.8478 23.5603 39.0878 23.3974 39.1906 23.1518 C 39.2934 22.9062 39.2363 22.6205 39.0478 22.432 L 21.4669 2.97455 C 21.3413 2.85172 21.1727 2.78317 20.9985 2.78317 Z M 24.1233 9.31279 L 24.1405 9.31279 C 24.1948 9.31564 24.2462 9.34421 24.2776 9.38991 C 24.289 9.40419 24.2976 9.42133 24.3033 9.43847 L 24.309 9.46703 L 24.309 9.49559 C 24.309 9.51273 24.3061 9.52987 24.3004 9.54701 L 24.2919 9.56986 C 24.1291 9.92405 23.9891 10.2954 23.8663 10.6753 C 23.8548 10.7153 23.8434 10.7524 23.8291 10.7924 C 23.7606 11.0152 23.6977 11.2437 23.6378 11.475 C 23.5521 11.8064 23.4778 12.1491 23.4093 12.4948 C 23.3778 12.6519 23.3493 12.809 23.3207 12.9689 C 23.2979 13.086 23.2779 13.2003 23.2579 13.3174 C 23.2293 13.4831 23.2036 13.6459 23.1779 13.8115 C 23.1493 13.9886 23.1208 14.1686 23.0951 14.3457 C 23.0808 14.4456 23.0665 14.5485 23.0494 14.6484 C 23.0265 14.817 23.0008 14.9855 22.9751 15.1512 C 22.9522 15.3168 22.9265 15.4825 22.9008 15.6482 C 22.858 15.931 22.8151 16.2137 22.7666 16.4937 C 22.678 17.0278 22.5809 17.5562 22.4609 18.0732 C 22.401 18.3303 22.3381 18.5845 22.2667 18.8359 C 22.221 19.0044 22.1696 19.1701 22.1182 19.3357 C 22.0639 19.4985 22.0068 19.6613 21.9497 19.8213 C 21.9182 19.9013 21.8868 19.9784 21.8554 20.0584 C 21.7926 20.2155 21.7269 20.3697 21.6555 20.524 C 21.6183 20.6011 21.584 20.6753 21.5469 20.7496 C 21.4698 20.901 21.3898 21.0467 21.307 21.1923 C 21.1813 21.4094 21.0442 21.6179 20.8957 21.8207 C 20.7471 22.0235 20.5872 22.2178 20.4158 22.4063 C 19.7246 23.1518 18.8248 23.7688 17.6366 24.1972 L 17.4652 24.2458 C 17.3909 24.2686 17.3138 24.2858 17.2395 24.3029 C 17.2195 24.3058 17.2024 24.3115 17.1824 24.3143 C 17.111 24.3315 17.0396 24.3429 16.971 24.3572 L 16.9568 24.36 C 16.8796 24.3715 16.8054 24.3829 16.7311 24.3915 C 16.7111 24.3943 16.6911 24.3943 16.674 24.3972 C 16.6054 24.4057 16.5369 24.4115 16.4712 24.4172 L 16.4455 24.42 L 16.2227 24.4286 L 16.1656 24.4286 C 16.1427 24.4286 16.1199 24.4314 16.097 24.4314 C 16.0656 24.4314 16.0342 24.4286 16.0027 24.4286 C 15.9742 24.4286 15.9485 24.4286 15.9228 24.4257 C 15.8599 24.4257 15.7999 24.4229 15.74 24.4172 C 15.7228 24.4172 15.7057 24.4172 15.6914 24.4143 C 15.6143 24.4086 15.5372 24.4 15.46 24.3915 C 15.4429 24.3886 15.4229 24.3857 15.4029 24.3829 C 15.3458 24.3743 15.2887 24.3658 15.2344 24.3572 C 15.2058 24.3543 15.1801 24.3486 15.1544 24.3429 C 15.103 24.3343 15.0544 24.3258 15.0059 24.3143 C 14.9773 24.3086 14.9516 24.3029 14.923 24.2943 L 14.7774 24.2601 C 14.7517 24.2515 14.726 24.2458 14.7002 24.2401 C 14.6403 24.2229 14.5831 24.2029 14.5232 24.1858 C 14.5089 24.1801 14.4946 24.1772 14.4832 24.1744 C 14.4232 24.1544 14.3661 24.1344 14.3089 24.1144 L 14.3061 24.1258 C 13.9462 24.8599 13.6748 25.5968 13.4377 26.2824 C 13.2978 26.6765 12.9293 26.925 12.5323 26.925 C 12.4266 26.925 12.3209 26.9079 12.2152 26.8708 C 11.7154 26.6994 11.4526 26.151 11.6268 25.6511 C 11.8839 24.9085 12.1781 24.1087 12.5837 23.2832 C 12.6065 23.2318 12.6351 23.1861 12.6665 23.1432 C 12.6551 23.1318 12.6437 23.1204 12.6322 23.1118 C 12.6123 23.0947 12.5923 23.0775 12.5751 23.0604 C 12.5266 23.0147 12.478 22.969 12.4294 22.9204 L 12.4095 22.9033 C 12.3552 22.849 12.3038 22.7948 12.2495 22.7376 L 12.2067 22.6862 C 12.1695 22.6462 12.1324 22.6062 12.0981 22.5634 C 12.081 22.5434 12.0638 22.5205 12.0467 22.4977 C 12.0153 22.4606 11.9839 22.4206 11.9524 22.3806 L 11.901 22.312 C 11.8696 22.2692 11.8382 22.2263 11.8096 22.1835 C 11.7953 22.1635 11.7811 22.1435 11.7668 22.1207 C 11.7268 22.0607 11.6868 22.0007 11.6468 21.9379 L 11.6411 21.9236 C 11.5982 21.8579 11.5611 21.7893 11.524 21.7208 C 11.5097 21.7008 11.5011 21.6779 11.4897 21.6579 C 11.464 21.6094 11.4383 21.5608 11.4154 21.5094 C 11.4012 21.4837 11.3897 21.458 11.3755 21.4323 C 11.3555 21.3837 11.3326 21.338 11.3126 21.2895 C 11.3012 21.2638 11.2898 21.2352 11.2783 21.2095 L 11.2184 21.0552 C 11.2098 21.0295 11.1984 21.0067 11.1898 20.9838 L 11.1127 20.7525 C 11.0498 20.544 10.9984 20.3383 10.9613 20.1298 C 10.9242 19.927 10.9013 19.7213 10.8899 19.5185 C 10.8842 19.4643 10.8842 19.41 10.8813 19.3529 C 10.8784 19.3014 10.8784 19.25 10.8784 19.1986 C 10.8784 19.0958 10.8842 18.993 10.8899 18.893 C 10.8927 18.8416 10.8956 18.7902 10.9013 18.7387 C 10.9156 18.5874 10.9356 18.436 10.9613 18.2874 L 10.9898 18.1589 L 11.0156 18.0332 C 11.0841 17.6905 11.1898 17.3477 11.3355 17.0049 C 11.4069 16.8336 11.4897 16.6622 11.5811 16.4908 C 11.7011 16.2623 11.8382 16.0338 11.9896 15.8053 C 12.0667 15.6939 12.1467 15.5796 12.2295 15.4682 C 12.3123 15.354 12.4009 15.2426 12.4923 15.1312 C 12.6751 14.9055 12.8722 14.6856 13.0836 14.4656 C 13.1892 14.3571 13.2978 14.2486 13.412 14.14 C 13.5234 14.0315 13.6405 13.9258 13.7605 13.8173 C 14.0004 13.6059 14.2518 13.3974 14.5174 13.1917 C 14.586 13.1403 14.6517 13.0889 14.7202 13.0403 C 14.8573 12.9375 14.9973 12.8375 15.1401 12.7404 C 15.2829 12.6404 15.4286 12.5433 15.5771 12.4462 C 15.7257 12.3491 15.8771 12.2548 16.0342 12.1606 C 16.1884 12.0663 16.3455 11.9749 16.5083 11.8835 C 16.5883 11.8378 16.6711 11.795 16.7511 11.7493 C 16.9968 11.615 17.251 11.4836 17.5109 11.3579 C 17.6823 11.2722 17.8565 11.1923 18.0365 11.1094 C 18.2136 11.0295 18.3935 10.9495 18.5792 10.8724 C 18.762 10.7952 18.9476 10.721 19.1362 10.6467 C 19.3247 10.5724 19.5161 10.501 19.7103 10.4325 C 20.0016 10.3296 20.2958 10.2297 20.5986 10.1354 C 20.8014 10.0726 21.0042 10.0097 21.2099 9.95261 C 22.1353 9.68983 23.1093 9.47274 24.1233 9.31279 Z M 17.8251 15.1597 C 17.548 15.194 17.2824 15.334 17.0939 15.5711 C 16.2141 16.6936 15.4115 17.8047 14.7031 18.8673 C 14.3661 19.37 14.5032 20.047 15.0059 20.3811 C 15.1915 20.5068 15.4001 20.5668 15.6086 20.5668 C 15.9628 20.5668 16.3084 20.3983 16.5197 20.0841 C 17.1996 19.0644 17.9708 17.9989 18.8162 16.9221 C 19.1904 16.4451 19.1076 15.7567 18.6306 15.3854 C 18.3935 15.1997 18.1022 15.1255 17.8251 15.1597 Z M 24.9917 19.4471 C 25.0888 19.4471 25.1973 19.4871 25.2687 19.5414 C 25.3573 19.6042 25.4458 19.7385 25.5315 19.9041 L 30.0217 28.7645 L 30.0246 28.7617 C 30.4273 29.5443 30.6587 30.4298 30.6587 31.3695 C 30.6587 34.5001 28.1222 37.0365 24.9945 37.0365 C 21.864 37.0365 19.3275 34.5001 19.3275 31.3695 C 19.3275 30.4298 19.556 29.5443 19.9645 28.7617 L 19.9645 28.7645 L 24.4547 19.9041 C 24.5404 19.7385 24.6289 19.6042 24.7175 19.5414 C 24.7917 19.4871 24.8974 19.4471 24.9917 19.4471 Z"/>
</svg>
