<?xml version="1.0" encoding="UTF-8"?>
<!DOCTYPE svg PUBLIC "-//W3C//DTD SVG 1.1//EN" "http://www.w3.org/Graphics/SVG/1.1/DTD/svg11.dtd">
<svg xmlns="http://www.w3.org/2000/svg" xmlns:xlink="http://www.w3.org/1999/xlink" version="1.1" width="42" height="42" viewBox="0 0 42 42">
<style>path{fill:#000}@media (prefers-color-scheme:dark){path{fill:#fff}}</style>
<path d="m 20.998202,2.8064313 c -0.174042,0 -0.340226,0.070466 -0.4627,0.1929404 L 2.9761356,22.430975 c -0.1901571,0.186934 -0.2460549,0.473219 -0.1429188,0.718167 0.099913,0.244948 0.3416823,0.407319 0.6091915,0.407319 H 9.1645215 V 39.193569 H 11.352966 V 23.556461 21.369803 H 9.1645215 6.881393 L 20.998202,5.7452 35.118584,21.369803 h -2.281343 -2.188445 v 2.186658 15.637108 h 2.188445 V 23.556461 h 5.720327 c 0.267509,0 0.509278,-0.162371 0.609192,-0.407319 0.103135,-0.244948 0.0458,-0.531233 -0.141133,-0.718167 L 21.466261,2.9993717 C 21.343787,2.8768976 21.175468,2.8064313 20.998202,2.8064313 Z M 24.781978,13.269877 C 18.6583,14.243181 14.268854,17.592232 13.646814,20.676646 l -0.04466,0.217952 c -0.122474,0.67683 -0.08731,1.389359 0.128627,2.091974 0.224648,0.729486 0.621705,1.35555 1.130845,1.854372 -0.04455,0.05774 -0.09897,0.105215 -0.132199,0.173289 -0.351307,0.715507 -0.60297,1.405585 -0.825356,2.04374 -0.199827,0.570471 0.102682,1.195069 0.669931,1.391671 0.119251,0.0419 0.24162,0.06074 0.360871,0.06074 0.45122,0 0.877884,-0.283026 1.032589,-0.734246 0.199826,-0.573695 0.423788,-1.190194 0.723526,-1.802564 0.0082,-0.01682 0.007,-0.03479 0.01429,-0.05181 0.404546,0.120483 0.826584,0.191155 1.257686,0.191155 0.386761,0 0.776242,-0.05085 1.163002,-0.157211 l 0.148278,-0.04288 c 5.375968,-1.94347 3.797428,-8.371906 5.650654,-12.423221 l 0.0089,-0.01965 c 0.0097,-0.029 0.0097,-0.06211 0,-0.09111 -0.01934,-0.06446 -0.07453,-0.105754 -0.135772,-0.108976 z m -2.878028,2.965566 c -0.08702,0.502788 -0.161687,1.004655 -0.235816,1.504221 -0.489896,3.332585 -0.880028,5.2704 -3.078115,6.095488 l -0.05002,0.01608 c -0.190157,0.05157 -0.383654,0.07325 -0.577035,0.07325 -0.989461,0 -1.85049,-0.635264 -2.143782,-1.582826 -0.106359,-0.341639 -0.129474,-0.689514 -0.07146,-1.034375 l 0.0393,-0.184008 0.0036,-0.0089 v -0.0071 c 0.19338,-0.963679 1.168673,-2.132229 2.602909,-3.128137 1.005577,-0.696169 2.201904,-1.289166 3.510444,-1.74361 z m -2.447485,2.200951 c -0.18492,0.02296 -0.360052,0.11719 -0.484138,0.275118 -0.747737,0.950786 -1.428182,1.887349 -2.027661,2.783345 -0.222387,0.335192 -0.133319,0.790549 0.201873,1.012937 0.122474,0.0838 0.265157,0.123267 0.403746,0.123267 0.23528,0 0.467029,-0.114209 0.605618,-0.326927 0.580141,-0.866988 1.241395,-1.772241 1.963347,-2.69402 0.248172,-0.315854 0.189016,-0.774048 -0.126839,-1.025442 -0.157927,-0.124086 -0.351026,-0.171242 -0.535946,-0.148278 z m 4.478719,6.786858 c -0.07736,0 -0.159938,0.03135 -0.217951,0.07325 -0.06769,0.05157 -0.143122,0.155481 -0.210806,0.287624 l -3.560465,7.033394 v -0.0036 c -0.322301,0.618816 -0.507362,1.324236 -0.507362,2.068749 0,2.484935 2.014871,4.496585 4.496584,4.496585 2.481712,0 4.496584,-2.01165 4.496584,-4.496585 0,-0.744513 -0.183274,-1.449933 -0.505575,-2.068749 v 0.0036 L 24.36394,25.584122 c -0.06769,-0.132143 -0.141334,-0.236055 -0.209018,-0.287624 -0.05801,-0.0419 -0.145609,-0.07325 -0.219738,-0.07325 z m 0,4.353665 2.040166,4.026739 0.06431,0.125054 c 0.135367,0.299739 0.203659,0.622013 0.203659,0.953982 0,1.273087 -1.035053,2.311713 -2.308139,2.311713 -1.273087,0 -2.308139,-1.038626 -2.308139,-2.311713 0,-0.335193 0.0683,-0.657466 0.203659,-0.953982 l 0.06431,-0.125054 z"/>
</svg>
