<?xml version="1.0" encoding="UTF-8"?>
<!DOCTYPE svg PUBLIC "-//W3C//DTD SVG 1.1//EN" "http://www.w3.org/Graphics/SVG/1.1/DTD/svg11.dtd">
<svg xmlns="http://www.w3.org/2000/svg" xmlns:xlink="http://www.w3.org/1999/xlink" version="1.1" width="42" height="42" viewBox="0 0 42 42">
<style>path{fill:#000}@media (prefers-color-scheme:dark){path{fill:#fff}}</style>
<path d="m 21.052734,4.3554688 c -0.19084,0 -0.38445,0.143912 -0.53125,0.4316406 l -4.683593,9.2187496 c -0.293601,0.578393 -0.729951,1.545573 -0.970703,2.150391 0,0 -0.34961,0.877462 -0.34961,2.001953 0,3.578992 2.900494,6.482422 6.482422,6.482422 3.581928,0 6.482422,-2.90343 6.482422,-6.482422 0,-1.00705 -0.244141,-1.697265 -0.244141,-1.697265 -0.214329,-0.61069 -0.628275,-1.589575 -0.921875,-2.167969 L 21.583984,4.7929688 c -0.1468,-0.2906647 -0.340409,-0.4375001 -0.53125,-0.4375 z M 4.046875,16.6875 v 18.265625 c 0,1.482683 1.208723,2.691406 2.6914062,2.691406 H 35.261719 c 1.482683,0 2.691406,-1.208723 2.691406,-2.691406 V 16.6875 H 34.904297 V 34.59375 H 7.0957031 V 16.6875 Z"/>
</svg>
