<?xml version="1.0" encoding="UTF-8"?>
<!DOCTYPE svg PUBLIC "-//W3C//DTD SVG 1.1//EN" "http://www.w3.org/Graphics/SVG/1.1/DTD/svg11.dtd">
<svg xmlns="http://www.w3.org/2000/svg" xmlns:xlink="http://www.w3.org/1999/xlink" version="1.1" width="42" height="42" viewBox="0 0 42 42">
<style>path{fill:#000}@media (prefers-color-scheme:dark){path{fill:#fff}}</style>
<path d="m 20.978516,7.8164062 c -6.785379,0.00345 -13.2467237,2.5574878 -18.1875004,7.1914058 -0.1275706,0.120676 -0.1996772,0.283144 -0.203125,0.458985 -0.00345,0.172393 0.062918,0.338769 0.1835938,0.462891 l 1.4550781,1.478515 c 0.1275707,0.127571 0.2934873,0.193359 0.4589844,0.193359 0.1586013,0 0.3172834,-0.05809 0.4414062,-0.171874 C 9.4436679,13.395698 15.080033,11.173828 21,11.173828 c 5.91652,0 11.556332,2.221869 15.873047,6.25586 0.255141,0.237901 0.651687,0.226764 0.896484,-0.02148 l 1.455078,-1.478515 c 0.124123,-0.124122 0.190948,-0.290956 0.1875,-0.466797 -0.0034,-0.172393 -0.07555,-0.334403 -0.203125,-0.455079 C 34.264759,10.3739 27.806864,7.8198592 21.021484,7.8164112 Z M 21,14.537109 c -5.016629,0 -9.809419,1.86903 -13.4882812,5.261719 -0.1275707,0.120675 -0.2035834,0.284638 -0.2070313,0.457031 -0.0069,0.175841 0.060965,0.342675 0.1816406,0.466797 l 1.4550781,1.482422 c 0.1275707,0.127571 0.2934873,0.189453 0.4589844,0.189453 0.1551535,0 0.314872,-0.05614 0.4355469,-0.169922 C 12.890737,19.435294 16.855678,17.898438 21,17.898438 c 4.144322,0 8.109263,1.536856 11.164062,4.326171 0.255142,0.234454 0.647781,0.22527 0.892579,-0.01953 l 1.455078,-1.482422 c 0.120675,-0.124122 0.185088,-0.290956 0.18164,-0.466797 -0.0034,-0.175841 -0.07751,-0.336356 -0.205078,-0.457031 C 30.805971,16.406139 26.016629,14.537109 21,14.537109 Z m 0.002,6.72461 c -3.240984,0 -6.352127,1.181606 -8.765625,3.326172 -0.131019,0.117227 -0.209442,0.283143 -0.21289,0.458984 -0.0069,0.17584 0.05751,0.348533 0.18164,0.472656 l 1.458984,1.482422 c 0.124122,0.12757 0.29004,0.193359 0.458985,0.193359 0.148258,0 0.299247,-0.05132 0.419922,-0.158203 1.785989,-1.55843 4.079964,-2.414062 6.458984,-2.414062 2.375572,0 4.667136,0.855632 6.453125,2.414062 0.255141,0.224111 0.641004,0.206196 0.878906,-0.03516 l 1.458985,-1.482422 c 0.124122,-0.124123 0.190489,-0.296816 0.183593,-0.472656 -0.0034,-0.175841 -0.08383,-0.341757 -0.214843,-0.458984 -2.413499,-2.144566 -5.52223,-3.326172 -8.759766,-3.326172 z m -0.0039,6.71875 c -1.482577,0 -2.868526,0.483839 -4.009766,1.390625 -0.141362,0.113779 -0.227938,0.282107 -0.238281,0.464844 -0.01379,0.179289 0.05603,0.359215 0.183594,0.490234 l 3.605468,3.667969 c 0.120675,0.120675 0.286593,0.189453 0.458985,0.189453 0.172393,0 0.338309,-0.06878 0.458984,-0.189453 l 3.609375,-3.667969 c 0.12757,-0.131019 0.193937,-0.310946 0.183594,-0.490234 -0.01034,-0.182736 -0.09738,-0.351065 -0.242188,-0.464844 -1.137791,-0.906786 -2.527187,-1.390625 -4.009765,-1.390625 z"/>
</svg>
