<?xml version="1.0" encoding="UTF-8"?>
<svg width="24" height="24" clip-rule="evenodd" fill-rule="evenodd" stroke-linejoin="round" stroke-miterlimit="2" version="1.1" viewBox="0 0 24 24" xml:space="preserve" xmlns="http://www.w3.org/2000/svg">
    
    <path d="m12 8.0176v-2.018h-8v9h-1.268v-9h-0.732v-2h12v2h-0.768v2.018zm-3 4.982v2h-4v-2zm-1-3v2h-3v-2zm3-1.982h-3v0.982h-3v-2h6zm-1.9911 0.96033h12.991v2h-1v9h-1.5v-9h-7.5v9h-1.5v-9h-1v-2m2.5089 3h6.4911v2h-5.5v-2m-0.99111 3h6.4911v2h-5.5v-2m-0.99111 3h6.4911v2h-5.5v-2" fill-rule="nonzero"/>
</svg>
