<?xml version="1.0" encoding="UTF-8"?>
<svg width="24" height="24" clip-rule="evenodd" fill-rule="evenodd" stroke-linejoin="round" stroke-miterlimit="2" version="1.1" viewBox="0 0 24 24" xml:space="preserve" xmlns="http://www.w3.org/2000/svg">
    
    
<path d="m5.9875 12.916h3.0125v0.99996h-3.0125zm0.024914-1.9158h1.9729v0.99996h-1.9729zm6.9627 6.7818h5.0124v0.99996h-5.0124zm0.02491-1.8574h5.0124v0.99996h-5.0124zm-1-7.9068v-2.018h-7v9h-2v-9h-0.99998v-2h13v2h-1v2.018zm-3.9854 0.98243v0.99997h-2.0021v-0.99997zm2.9854-0.99121-5-0.00879v-1.0004h5zm11 0.99115v2h-1v8.9779h-2v-8.9779h-7v8.9779h-2v-8.9779h-1v-2m9.0125 3v1h-5.0124v-1m0 2h5.0124v0.99996h-5.0124v-0.99996" stroke-width=".86607"/></svg>
