<?xml version="1.0" encoding="UTF-8"?>
<svg width="24" height="24" clip-rule="evenodd" fill-rule="evenodd" stroke-linejoin="round" stroke-miterlimit="2" version="1.1" viewBox="0 0 24 24" xml:space="preserve" xmlns="http://www.w3.org/2000/svg">
    
    <path d="m13.018 8v-2.018h-8v9h-1v-9h-1v-2h12v2h-1v2.018zm-4.018 4.982v2h-2.982v-2zm-1-3v2h-1.982v-2zm4.018-1.982h-4.018v0.982h-1.982v-2h6zm-3.0091 1h12v2h-1v9h-1v-9h-8v9h-1v-9h-1v-2m3 3h6v2h-6v-2m0 3h6v2h-6v-2m0 3h6v2h-6v-2" fill-rule="nonzero"/>
</svg>
