<?xml version="1.0" encoding="UTF-8"?>
<svg width="24" height="24" clip-rule="evenodd" fill-rule="evenodd" stroke-linejoin="round" stroke-miterlimit="2" version="1.1" viewBox="0 0 24 24" xml:space="preserve" xmlns="http://www.w3.org/2000/svg">
    
    
        <path d="m16.485 11.02s-0.0786 0 0 0c-3.0643 0.0785-5.5 2.5142-5.5 5.5 0 3.0642 2.4357 5.5 5.5 5.5s5.5-2.4358 5.5-5.5c0-3.0643-2.4357-5.5-5.5-5.5m0 9.4285c-2.2 0-3.9286-1.7285-3.9286-3.9285s1.7286-3.9286 3.9286-3.9286 3.9286 1.7286 3.9286 3.9286-1.7286 3.9285-3.9286 3.9285m-0.7857-7.0714v3.9286l2.8286 1.7285 0.6285-0.9428-2.2785-1.3357v-3.3786zm1.3007-3.3581v-2.019h-10v12h-2v-12h-2v-4h18v4h-2v2.499c-0.624-0.26-1.296-0.426-2-0.48zm-6.826 7.981c0.171 0.72 0.461 1.395 0.849 2h-3.023v-2zm0-3c-0.114 0.482-0.174 0.984-0.174 1.5 0 0.168 6e-3 0.335 0.019 0.5h-2.019v-2zm1.637-3c-0.552 0.576-1 1.252-1.312 2h-2.499v-2zm4.189-1.981c-1.084 0.083-2.094 0.431-2.964 0.981h-5.036v-2h8z" fill-rule="nonzero"/>
    
</svg>
