<?xml version="1.0" encoding="UTF-8"?>
<svg width="24" height="24" version="1.1" viewBox="0 0 24 24" xmlns="http://www.w3.org/2000/svg">
 <path d="m21.7 18.6v-1l1.1-0.8c0.1-0.1 0.2-0.2 0.1-0.3l-1-1.7c0-0.1-0.2-0.1-0.3-0.1l-1.2 0.5c-0.3-0.2-0.6-0.4-0.9-0.5l-0.2-1.3c0-0.1-0.1-0.2-0.2-0.2h-2c-0.2 0-0.3 0.1-0.3 0.2l-0.2 1.3c-0.3 0.2-0.5 0.3-0.8 0.5l-1.2-0.5c-0.1 0-0.2 0-0.3 0.1l-1 1.7c0 0.1 0 0.2 0.1 0.3l1.1 0.8v1l-1.1 0.8c-0.1 0.1-0.2 0.2-0.1 0.3l1 1.7c0.1 0.1 0.2 0.1 0.3 0.1l1.2-0.5c0.2 0.2 0.5 0.4 0.8 0.5l0.2 1.3c0.1 0.1 0.2 0.2 0.3 0.2h2c0.1 0 0.2-0.1 0.2-0.2l0.2-1.3c0.3-0.2 0.5-0.3 0.8-0.5l1.2 0.4c0.1 0 0.2 0 0.3-0.1l1-1.7c0.1-0.1 0.1-0.2 0-0.2l-1.1-0.8m-3.7 0.9c-0.8 0-1.5-0.7-1.5-1.5s0.7-1.5 1.5-1.5 1.5 0.7 1.5 1.5-0.7 1.5-1.5 1.5m-10-10.5h8v2h-8v-2m9-1h-10v12h-2v-12h-2v-4h18v4h-2v3.1c-0.3 0-0.7-0.1-1-0.1s-0.7 0-1 0.1v-3.1m-5.7 12h-3.3v-2h3c0 0.7 0.1 1.4 0.3 2m-3.3-8h6.4c-0.8 0.5-1.6 1.2-2.1 2h-4.3v-2m0 3h3.7c-0.3 0.6-0.5 1.3-0.6 2h-3.1v-2z"/>
</svg>
