<?xml version="1.0" encoding="UTF-8"?>
<svg width="24" height="24" version="1.1" viewBox="0 0 24 24" xmlns="http://www.w3.org/2000/svg">
 <style>path{fill:#000}@media (prefers-color-scheme:dark){path{fill:#fff}}</style>
 <path d="m12 23.127c-0.5926-2.6716-1.1852-5.3432-1.7777-8.0147-2.4582 1.2024-4.9164 2.4048-7.3745 3.6073 1.7193-2.1291 3.4386-4.2582 5.1579-6.3873-2.4729-1.1722-4.9457-2.3443-7.4187-3.5166 2.7365 0.01678 5.4729 0.03355 8.2094 0.05033-0.62531-2.6641-1.2505-5.3282-1.8759-7.9923 1.6931 2.1498 3.3861 4.2997 5.0792 6.4495 1.6931-2.1498 3.3861-4.2997 5.0792-6.4495-0.62532 2.6641-1.2505 5.3282-1.8759 7.9923l8.2094-0.05033c-2.4729 1.1723-4.9457 2.3444-7.4187 3.5166 1.7193 2.1291 3.4386 4.2582 5.1579 6.3873-2.4582-1.2025-4.9164-2.4049-7.3744-3.6073-0.59241 2.6715-1.1848 5.3431-1.7772 8.0147z"/>
</svg>
