<?xml version="1.0" encoding="UTF-8"?>
<svg width="24" height="24" version="1.1" viewBox="0 0 24 24" xmlns="http://www.w3.org/2000/svg">
 <style>path{fill:#000}@media (prefers-color-scheme:dark){path{fill:#fff}}</style>
 <path d="m7.7762 3.0186c0.50476 2.1505 1.0093 4.3022 1.5141 6.4527l-6.627-0.04162c1.9962 0.94622 3.9928 1.8937 5.9889 2.8399-1.3879 1.7186-2.7758 3.436-4.1637 5.1546 1.9842-0.97067 3.969-1.9407 5.9533-2.9112 0.47828 2.1565 0.95646 4.312 1.4348 6.4685 0.47819-2.1565 0.95661-4.312 1.4348-6.4685 1.9842 0.97059 3.969 1.9406 5.9533 2.9112l-4.1637-5.1546c1.9962-0.94618 3.9927-1.8937 5.9889-2.8399l-6.627 0.04162c0.50476-2.1505 1.0093-4.3022 1.5141-6.4527-1.3667 1.7354-2.7336 3.4708-4.1003 5.2062-1.3667-1.7354-2.7336-3.4708-4.1003-5.2062zm-2.8517 2.1701c0.22637 0.96446 0.45354 1.9309 0.67975 2.8954l1.6052 0.0079c-0.76147-0.96725-1.5233-1.9362-2.285-2.9033zm7.0769 0c0.05117 0.21801 0.10145 0.43596 0.1526 0.65399 0.06022-0.07647 0.12212-0.15144 0.18233-0.2279-0.11169-0.14183-0.22323-0.28426-0.33492-0.42608zm0 0c-0.153 0.19428-0.30674 0.39033-0.45977 0.58462 0.08237 0.10459 0.16734 0.20655 0.2497 0.31114 0.07014-0.29864 0.13997-0.59714 0.21007-0.89576zm7.075 0c-0.76097 0.96627-1.5222 1.9349-2.283 2.9014l1.6033-0.0099c0.22605-0.9638 0.45354-1.9277 0.67975-2.8914zm-18.565 5.5351c1.7226 0.81656 3.4459 1.6329 5.1684 2.4495-1.1976 1.4831-2.3933 2.966-3.591 4.4491 0.34514-0.16884 0.6914-0.33854 1.0365-0.50734 1.2785-1.5832 2.5543-3.1671 3.8327-4.7503-1.1415-0.54109-2.281-1.0819-3.4225-1.6231l-3.0242-0.01784zm22.978 0-3.2719 0.01982c-1.1404 0.54058-2.2821 1.0805-3.4225 1.6211l3.6762 4.5521c0.48047 0.23503 0.96016 0.47042 1.4407 0.70551l-3.591-4.4491c1.7226-0.81653 3.4458-1.6329 5.1685-2.4495zm-13.956 5.1388c-0.64411 0.31507-1.2881 0.63222-1.9322 0.94729 0.28702 1.294 0.57304 2.5902 0.8601 3.8843 0.35696-1.6098 0.71513-3.2219 1.0721-4.8316zm4.9644 0.13476c0.347 1.5645 0.69338 3.1322 1.0404 4.6968 0.27893-1.2579 0.5573-2.5175 0.83631-3.7753-0.62569-0.30606-1.2511-0.61547-1.8767-0.92152zm-0.58462 0.48157c-0.04604 0.20765-0.09268 0.4166-0.13872 0.62426 0.35413 0.173 0.70823 0.34605 1.0623 0.51923l-0.92351-1.1435zm-4.019 0.23782c-0.2441 0.30172-0.48753 0.60382-0.73127 0.90568 0.28008-0.13701 0.56015-0.27324 0.84027-0.41023-0.03655-0.16476-0.07245-0.33068-0.109-0.49544z"/>
</svg>
